<svg xmlns="http://www.w3.org/2000/svg" xmlns:xlink="http://www.w3.org/1999/xlink" xmlns:lucid="lucid" width="2436" height="1960"><g transform="translate(-60 -40)" lucid:page-tab-id="0_0"><path d="M0 0h3676.8v2582.4H0z" fill="#fff"/><path d="M340 122c0-16.57 13.43-30 30-30h1860c16.57 0 30 13.43 30 30v1828c0 16.57-13.43 30-30 30H370c-16.57 0-30-13.43-30-30z" stroke="#474747" fill-opacity="0"/><path d="M448 94.4v3.54c0 6.42-7.1 13.05-15.76 13.05h-46.48c-8.66 0-15.75-6.64-15.75-13.06V94.4z" fill="#9d5125"/><path d="M400.03 60c8.03 0 14.82 4.4 18.17 11.67 4.6-3.14 10.92-1.98 14.04 2.65 1.17 1.64 1.7 3.32 1.8 5.3 7.87.68 13.95 8.25 13.95 14.27v1.3c0 6.45-7.1 13-15.76 13h-46.5c-8.64 0-15.74-6.55-15.74-13v-1.3c0-5.02 4.2-11.87 10.06-13.56v-.57c.08-10.95 8.97-19.82 19.97-19.77z" fill="#f58535"/><path d="M389.54 83.13l-5.2 18.2h3.04l1.17-4.43h5.38l1.1 4.43h3.05l-4.8-18.2zm-.47 11.4l2.22-8.98 2.1 8.97zM411.2 97.34h-.03l-2.47-14.2h-3.1l-2.4 14.13h-.06l-2.4-14.14h-2.95l3.53 18.2h3.38l2.35-13.7h.06l2.36 13.7h3.4l3.64-18.2h-2.9l-2.4 14.2zM425.9 91.4l-1.98-.72c-1.93-.7-2.74-1.53-2.74-3.1-.17-1.26.74-2.43 2-2.6.16-.02.3-.02.45-.02 1.26-.17 2.4.72 2.58 1.96.04.25.03.44 0 .68v.38h2.93v-.4c0-1.9-.5-4.8-5.18-4.8-3.44 0-5.7 1.84-5.7 5.16 0 2.6 1.1 3.97 3.82 5l2 .68c1.6.23 2.73 1.6 2.64 3.2.04 1.45-1.08 2.64-2.5 2.68h-.28c-2 0-3-1.12-3-3.33v-.47h-2.9v.44c0 2.54 1.02 5.53 5.52 5.53 3.7 0 6.07-1.6 6.07-5.48.04-2.5-1.1-3.9-3.7-4.8z" fill="#fff"/><use xlink:href="#a" transform="matrix(1,0,0,1,340,1950) translate(905.5246913580247 11.11111111111111)"/><use xlink:href="#b" transform="matrix(1,0,0,1,340,1950) translate(961.4506172839506 11.11111111111111)"/><path d="M102.44 1011.78H81.7c-.95 0-1.7-.76-1.7-1.7v-2.54c0-9.48 6.23-17.44 15.5-19.67.4-.1.8-.04 1.2.17 2.73 1.46 5.68 1.46 8.4 0 .4-.2.8-.26 1.22-.17 2.43.6 4.43 1.47 6.5 2.85l-1.9 2.83c-1.55-1-3-1.68-4.8-2.15-3.45 1.58-7 1.58-10.43 0-7.4 2.06-12.3 8.5-12.3 16.14v.84h19.04z" stroke="#fff" stroke-opacity="0" fill="#232f3e"/><path d="M100.88 992.46c-6.17 0-11.17-5-11.17-11.14 0-6.16 5-11.15 11.18-11.15 6.16-.07 11.2 4.88 11.26 11 .04 4.27-2.1 7.9-5.86 9.9-1.72.97-3.4 1.4-5.4 1.4zm0-18.9c-4.3 0-7.83 3.45-7.85 7.76 0 2.92 1.48 5.4 4.06 6.8 2.43 1.3 5.12 1.3 7.57 0 2.6-1.4 4.1-3.95 4.06-6.9-.05-4.27-3.57-7.68-7.85-7.64zM158.32 1011.78h-20.75v-3.4h19.04v-.83c0-7.67-4.9-14.1-12.25-16.17-3.45 1.6-7 1.6-10.46 0-1.82.5-3.3 1.2-4.84 2.28l-1.94-2.8c2.07-1.44 4.08-2.35 6.5-2.97.44-.1.86-.06 1.26.16 2.7 1.46 5.7 1.46 8.42 0 .4-.22.8-.27 1.2-.17 9.25 2.22 15.5 10.16 15.5 19.65v2.53c0 .94-.76 1.68-1.68 1.7z" stroke="#fff" stroke-opacity="0" fill="#232f3e"/><path d="M139.08 992.46c-6.2 0-11.23-5.05-11.23-11.25s5.06-11.2 11.28-11.2c6.2 0 11.23 5.05 11.23 11.25 0 4.23-2.14 7.82-5.85 9.84-1.75.94-3.44 1.36-5.42 1.36zm0-18.9c-4.3 0-7.8 3.45-7.83 7.76-.02 2.92 1.46 5.42 4.05 6.8 2.43 1.3 5.13 1.3 7.6 0 2.62-1.4 4.13-3.97 4.08-6.96-.1-4.26-3.62-7.68-7.9-7.6zM147.2 1050H92.73c-.92 0-1.67-.75-1.67-1.7v-3.6c-.06-13.1 8.6-24.1 21.32-27.18.46-.13.86-.06 1.27.13 4.04 2.18 8.5 2.18 12.6 0 .34-.2.75-.26 1.2-.13 12.78 3.06 21.45 14.06 21.4 27.18v3.6c0 .95-.76 1.7-1.68 1.7zm-52.72-3.38h50.97v-1.92c0-11.27-7.28-20.74-18.2-23.66-4.8 2.3-9.83 2.3-14.62 0-10.93 2.92-18.15 12.4-18.15 23.66z" stroke="#fff" stroke-opacity="0" fill="#232f3e"/><path d="M120.02 1022.64c-2.7 0-5-.58-7.4-1.86-7.4-4.07-10.13-13.34-6.1-20.77 4.1-7.4 13.38-10.12 20.83-6.08 7.42 4.07 10.15 13.34 6.1 20.77-1.47 2.68-3.4 4.6-6.1 6.08-2.36 1.28-4.66 1.86-7.33 1.86zm0-26.76c-4.44-.06-8.28 2.17-10.42 6.1-3.07 5.64-.98 12.74 4.7 15.83 3.67 1.97 7.7 1.97 11.4 0 3.95-2.13 6.22-5.95 6.16-10.42-.1-6.42-5.4-11.6-11.84-11.5z" stroke="#fff" stroke-opacity="0" fill="#232f3e"/><path d="M158.78 1011.78h-39.72c-.68 0-1.23-.54-1.23-1.23v-2.64c-.04-9.53 6.3-17.56 15.56-19.8.33-.1.63-.06.92.08 2.95 1.6 6.2 1.6 9.2 0 .25-.14.54-.2.88-.1 9.32 2.24 15.64 10.27 15.6 19.83v2.65c0 .7-.55 1.23-1.22 1.23zm-38.46-2.47h37.2v-1.4c0-8.2-5.32-15.1-13.3-17.25-3.5 1.7-7.16 1.7-10.66 0-7.97 2.14-13.24 9.05-13.24 17.26z" stroke="#fff" stroke-opacity="0" stroke-width=".73" fill="#fff" fill-opacity="0"/><path d="M120.94 1011.78H81.22c-.67 0-1.22-.54-1.22-1.23v-2.64c-.04-9.53 6.28-17.56 15.56-19.8.34-.1.63-.06.93.08 2.94 1.6 6.2 1.6 9.18 0 .25-.14.55-.2.88-.1 9.32 2.24 15.65 10.27 15.6 19.83v2.65c0 .7-.54 1.23-1.22 1.23zm-38.45-2.47h37.18v-1.4c0-8.2-5.3-15.1-13.28-17.25-3.5 1.7-7.17 1.7-10.67 0-7.97 2.14-13.24 9.05-13.24 17.26z" stroke="#fff" stroke-opacity="0" stroke-width=".73" fill="#fff" fill-opacity="0"/><use xlink:href="#c" transform="matrix(1,0,0,1,50,1059) translate(41.04938271604939 17.77777777777778)"/><path d="M780 290c0-16.57 13.43-30 30-30h1260c16.57 0 30 13.43 30 30v560c0 16.57-13.43 30-30 30H810c-16.57 0-30-13.43-30-30z" fill-opacity="0"/><path d="M795.04 264.1l3.17-1.7 4.72-1.56 4.93-.76L810 260h15m15 0h30m15 0h30m15 0h30m15 0h30m15 0h30m15 0h30m15 0h30m15 0h30m15 0h30m15 0h30m15 0h30m15 0h30m15 0h30m15 0h30m15 0h30m15 0h30m15 0h30m15 0h30m15 0h30m15 0h30m15 0h30m15 0h30m15 0h30m15 0h30m15 0h30m15 0h30m15 0h30m15 0h15l5 .42 4.82 1.22 4.54 2 .6.42m10.95 10.98l1.7 3.17 1.56 4.72.76 4.93.08 2.15v15.56m0 15.55v31.12m0 15.56v31.1m0 15.56v31.12m0 15.55v31.12m0 15.56v31.1m0 15.56v31.12m0 15.55v31.12m0 15.56v31.1m0 15.56v31.12m0 15.55v31.12m0 15.56v31.1m0 15.56V850l-.42 5-1.22 4.82-2 4.54-.42.6m-10.98 10.95l-3.17 1.7-4.72 1.56-4.93.76-2.15.08h-15m-15 0h-30m-15 0h-30m-15 0h-30m-15 0h-30m-15 0h-30m-15 0h-30m-15 0h-30m-15 0h-30m-15 0h-30m-15 0h-30m-15 0h-30m-15 0h-30m-15 0h-30m-15 0h-30m-15 0h-30m-15 0h-30m-15 0h-30m-15 0h-30m-15 0h-30m-15 0h-30m-15 0h-30m-15 0h-30m-15 0h-30m-15 0h-30m-15 0h-30m-15 0h-30m-15 0h-30m-15 0h-15l-5-.42-4.82-1.22-4.54-2-.6-.42m-10.95-10.98l-1.7-3.17-1.56-4.72-.76-4.93L780 850v-15.56m0-15.55v-31.12m0-15.56v-31.1m0-15.56v-31.12m0-15.55v-31.12m0-15.56v-31.1m0-15.56v-31.12m0-15.55v-31.12m0-15.56v-31.1m0-15.56v-31.12m0-15.55v-31.12m0-15.56v-31.1m0-15.56V290l.42-5 1.22-4.82 2-4.54.42-.6" stroke="#f7981f" stroke-width="3" fill="none"/><use xlink:href="#d" transform="matrix(1,0,0,1,779.9999999999998,850) translate(570.2777777777778 11.11111111111111)"/><use xlink:href="#e" transform="matrix(1,0,0,1,779.9999999999998,850) translate(680.6481481481482 11.11111111111111)"/><use xlink:href="#f" transform="matrix(1,0,0,1,779.9999999999998,850) translate(737.3765432098766 11.11111111111111)"/><path d="M780 1310c0-16.57 13.43-30 30-30h1260c16.57 0 30 13.43 30 30v420c0 16.57-13.43 30-30 30H810c-16.57 0-30-13.43-30-30z" fill-opacity="0"/><path d="M795.04 1284.1l3.17-1.7 4.72-1.56 4.93-.76 2.15-.08h15m15 0h30m15 0h30m15 0h30m15 0h30m15 0h30m15 0h30m15 0h30m15 0h30m15 0h30m15 0h30m15 0h30m15 0h30m15 0h30m15 0h30m15 0h30m15 0h30m15 0h30m15 0h30m15 0h30m15 0h30m15 0h30m15 0h30m15 0h30m15 0h30m15 0h30m15 0h30m15 0h30m15 0h15l5 .42 4.82 1.22 4.54 2 .6.42m10.95 10.98l1.7 3.17 1.56 4.72.76 4.93.08 2.15v15.56m0 15.55v31.12m0 15.56v31.1m0 15.56v31.12m0 15.55v31.12m0 15.56v31.1m0 15.56v31.12m0 15.55v31.12m0 15.56v31.1m0 15.56V1730l-.42 5-1.22 4.82-2 4.54-.42.6m-10.98 10.95l-3.17 1.7-4.72 1.56-4.93.76-2.15.08h-15m-15 0h-30m-15 0h-30m-15 0h-30m-15 0h-30m-15 0h-30m-15 0h-30m-15 0h-30m-15 0h-30m-15 0h-30m-15 0h-30m-15 0h-30m-15 0h-30m-15 0h-30m-15 0h-30m-15 0h-30m-15 0h-30m-15 0h-30m-15 0h-30m-15 0h-30m-15 0h-30m-15 0h-30m-15 0h-30m-15 0h-30m-15 0h-30m-15 0h-30m-15 0h-30m-15 0h-30m-15 0h-15l-5-.42-4.82-1.22-4.54-2-.6-.42m-10.95-10.98l-1.7-3.17-1.56-4.72-.76-4.93-.08-2.15v-15.56m0-15.55v-31.12m0-15.56v-31.1m0-15.56v-31.12m0-15.55v-31.12m0-15.56v-31.1m0-15.56v-31.12m0-15.55v-31.12m0-15.56v-31.1m0-15.56V1310l.42-5 1.22-4.82 2-4.54.42-.6" stroke="#f7981f" stroke-width="3" fill="none"/><use xlink:href="#d" transform="matrix(1,0,0,1,779.9999999999998,1730) translate(570.2777777777778 11.11111111111111)"/><use xlink:href="#e" transform="matrix(1,0,0,1,779.9999999999998,1730) translate(680.6481481481482 11.11111111111111)"/><use xlink:href="#g" transform="matrix(1,0,0,1,779.9999999999998,1730) translate(737.3765432098766 11.11111111111111)"/><path d="M515 222c0-16.57 13.43-30 30-30h1585c16.57 0 30 13.43 30 30v1628c0 16.57-13.43 30-30 30H545c-16.57 0-30-13.43-30-30z" stroke="#474747" fill-opacity="0"/><path d="M623 194.4v3.54c0 6.42-7.1 13.05-15.76 13.05h-46.48c-8.66 0-15.75-6.64-15.75-13.06v-3.54z" fill="#9d5125"/><path d="M575.03 160c8.03 0 14.82 4.4 18.17 11.67 4.6-3.14 10.92-1.98 14.04 2.65 1.17 1.64 1.7 3.32 1.8 5.3 7.87.68 13.95 8.25 13.95 14.27v1.3c0 6.45-7.1 13-15.76 13h-46.5c-8.64 0-15.74-6.55-15.74-13v-1.3c0-5.02 4.2-11.87 10.06-13.56v-.57c.08-10.95 8.97-19.82 19.97-19.77z" fill="#f58535"/><path d="M563.9 183.13h3.08l3.1 14.58 3.32-14.54h3.1l-4.6 18.2h-3.7zM578.37 183.13h5.77c3.5 0 5.04 2.2 5.04 5.3 0 3.1-1.9 5.4-5.33 5.4h-2.57v7.53h-2.9zm2.9 8.5h2.08c1.56 0 2.9-.83 2.9-3.14 0-1.98-.78-3.17-3.1-3.17h-1.87zM602.8 194.83v.38c0 3.32-1.3 6.52-5.6 6.52-4.6 0-6.04-2.97-6.04-9.47s1.43-9.46 6.05-9.46c5.2 0 5.54 3.8 5.54 5.7v.37h-2.9v-.3c0-1.7-.5-3.64-2.6-3.57-2.08.08-3.1 1.35-3.1 7.22 0 5.87.92 7.3 3.14 7.3 2.42 0 2.7-2.7 2.7-4.42v-.3z" fill="#fff"/><use xlink:href="#h" transform="matrix(1,0,0,1,515,1850) translate(721.6975308641976 -15.55555555555555)"/><use xlink:href="#i" transform="matrix(1,0,0,1,515,1850) translate(790.216049382716 -15.55555555555555)"/><use xlink:href="#j" transform="matrix(1,0,0,1,515,1850) translate(865.4012345679013 -15.55555555555555)"/><use xlink:href="#k" transform="matrix(1,0,0,1,515,1850) translate(733.7037037037037 11.111111111111118)"/><use xlink:href="#l" transform="matrix(1,0,0,1,515,1850) translate(800.1851851851852 11.111111111111118)"/><path d="M840 522c0-16.57 13.43-30 30-30h280c16.57 0 30 13.43 30 30v288c0 16.57-13.43 30-30 30H870c-16.57 0-30-13.43-30-30z" stroke="#474747" fill-opacity="0"/><path d="M901.97 480.24v-5.9c0-7.25-5.88-13.13-13.12-13.13-7.24 0-13.12 5.9-13.12 13.14v5.9h6.64v-5.9c0-3.58 2.9-6.5 6.48-6.5 3.57 0 6.48 2.92 6.48 6.5v5.9h6.64z" fill="#876a22"/><path d="M901.98 480.26h5.42v20.83H870v-20.84h5.72v-7.1c0-7.28 5.87-13.16 13.13-13.16 7.26 0 13.13 5.88 13.13 13.15v7.1zm-6.66 0v-7.1c0-3.6-2.88-6.5-6.47-6.5-3.6 0-6.47 2.9-6.47 6.5v7.1h12.94z" fill="#daa835"/><path d="M870 501.1h37.4v.9H870z" fill="#876a22"/><use xlink:href="#m" transform="matrix(1,0,0,1,840,810) translate(92.28395061728396 -15.55555555555555)"/><use xlink:href="#n" transform="matrix(1,0,0,1,840,810) translate(158.82716049382717 -15.55555555555555)"/><use xlink:href="#o" transform="matrix(1,0,0,1,840,810) translate(235.37037037037038 -15.55555555555555)"/><use xlink:href="#p" transform="matrix(1,0,0,1,840,810) translate(84.29012345679014 11.111111111111118)"/><path d="M840 1371.5c0-16.57 13.43-30 30-30h300c16.57 0 30 13.43 30 30v288c0 16.57-13.43 30-30 30H870c-16.57 0-30-13.43-30-30z" stroke="#474747" fill-opacity="0"/><path d="M901.97 1329.74v-5.9c0-7.25-5.88-13.13-13.12-13.13-7.24 0-13.12 5.9-13.12 13.14v5.9h6.64v-5.9c0-3.58 2.9-6.5 6.48-6.5 3.57 0 6.48 2.92 6.48 6.5v5.9h6.64z" fill="#876a22"/><path d="M901.98 1329.76h5.42v20.83H870v-20.84h5.72v-7.1c0-7.28 5.87-13.16 13.13-13.16 7.26 0 13.13 5.88 13.13 13.15v7.1zm-6.66 0v-7.1c0-3.6-2.88-6.5-6.47-6.5-3.6 0-6.47 2.9-6.47 6.5v7.1h12.94z" fill="#daa835"/><path d="M870 1350.6h37.4v.9H870z" fill="#876a22"/><use xlink:href="#m" transform="matrix(1,0,0,1,840,1659.5) translate(102.28395061728396 -15.55555555555555)"/><use xlink:href="#n" transform="matrix(1,0,0,1,840,1659.5) translate(168.82716049382717 -15.55555555555555)"/><use xlink:href="#q" transform="matrix(1,0,0,1,840,1659.5) translate(245.37037037037038 -15.55555555555555)"/><use xlink:href="#k" transform="matrix(1,0,0,1,840,1659.5) translate(91.2037037037037 11.111111111111118)"/><use xlink:href="#r" transform="matrix(1,0,0,1,840,1659.5) translate(157.68518518518516 11.111111111111118)"/><path d="M1220 342c0-16.57 13.43-30 30-30h760c16.57 0 30 13.43 30 30v468c0 16.57-13.43 30-30 30h-760c-16.57 0-30-13.43-30-30z" stroke="#474747" fill-opacity="0"/><path d="M1281.97 300.24v-5.9c0-7.25-5.88-13.13-13.12-13.13-7.24 0-13.12 5.9-13.12 13.14v5.9h6.64v-5.9c0-3.58 2.9-6.5 6.48-6.5 3.57 0 6.48 2.92 6.48 6.5v5.9h6.64z" fill="#876a22"/><path d="M1281.98 300.26h5.42v20.83H1250v-20.84h5.72v-7.1c0-7.28 5.87-13.16 13.13-13.16 7.26 0 13.13 5.88 13.13 13.15v7.1zm-6.66 0v-7.1c0-3.6-2.88-6.5-6.47-6.5-3.6 0-6.47 2.9-6.47 6.5v7.1h12.94z" fill="#daa835"/><path d="M1250 321.1h37.4v.9H1250z" fill="#876a22"/><use xlink:href="#s" transform="matrix(1,0,0,1,1220,810) translate(327.96296296296293 -15.55555555555555)"/><use xlink:href="#n" transform="matrix(1,0,0,1,1220,810) translate(403.14814814814815 -15.55555555555555)"/><use xlink:href="#o" transform="matrix(1,0,0,1,1220,810) translate(479.69135802469134 -15.55555555555555)"/><use xlink:href="#k" transform="matrix(1,0,0,1,1220,810) translate(321.2037037037037 11.111111111111118)"/><use xlink:href="#t" transform="matrix(1,0,0,1,1220,810) translate(387.68518518518516 11.111111111111118)"/><path d="M1220 1371.5c0-16.57 13.43-30 30-30h760c16.57 0 30 13.43 30 30v288c0 16.57-13.43 30-30 30h-760c-16.57 0-30-13.43-30-30z" stroke="#474747" fill-opacity="0"/><path d="M1281.97 1329.74v-5.9c0-7.25-5.88-13.13-13.12-13.13-7.24 0-13.12 5.9-13.12 13.14v5.9h6.64v-5.9c0-3.58 2.9-6.5 6.48-6.5 3.57 0 6.48 2.92 6.48 6.5v5.9h6.64z" fill="#876a22"/><path d="M1281.98 1329.76h5.42v20.83H1250v-20.84h5.72v-7.1c0-7.28 5.87-13.16 13.13-13.16 7.26 0 13.13 5.88 13.13 13.15v7.1zm-6.66 0v-7.1c0-3.6-2.88-6.5-6.47-6.5-3.6 0-6.47 2.9-6.47 6.5v7.1h12.94z" fill="#daa835"/><path d="M1250 1350.6h37.4v.9H1250z" fill="#876a22"/><use xlink:href="#s" transform="matrix(1,0,0,1,1220,1659.5) translate(327.96296296296293 -15.55555555555555)"/><use xlink:href="#n" transform="matrix(1,0,0,1,1220,1659.5) translate(403.14814814814815 -15.55555555555555)"/><use xlink:href="#q" transform="matrix(1,0,0,1,1220,1659.5) translate(479.69135802469134 -15.55555555555555)"/><use xlink:href="#k" transform="matrix(1,0,0,1,1220,1659.5) translate(321.2037037037037 11.111111111111118)"/><use xlink:href="#u" transform="matrix(1,0,0,1,1220,1659.5) translate(387.68518518518516 11.111111111111118)"/><path d="M395 1002.36c0 31.8-25.76 57.63-57.5 57.63s-57.5-25.83-57.5-57.64c0-31.8 25.76-57.63 57.5-57.63s57.5 25.82 57.5 57.63z" fill="#9d5025"/><path d="M280 997.62h115v4.73H280v-4.73z" fill="#9d5025"/><path d="M395 997.63c0 31.8-25.76 57.63-57.5 57.63s-57.5-25.82-57.5-57.63c0-31.8 25.76-57.63 57.5-57.63s57.5 25.82 57.5 57.63z" fill="#f58536"/><path d="M294.14 1003.36v-1.5c.44-7 4.34-12.8 10.66-15.86.6-12.86 11.52-22.8 24.43-22.12 8.05.38 14.8 4.5 18.88 11.47 6.6-2.77 14.13.28 16.9 6.82.43.95.7 1.72.86 2.67 8.67 1.72 14.9 10.03 14.9 17.02v1.4c0 8.53-8.83 16-18.88 16h-48.94c-9.96.07-18.8-7.42-18.8-15.9z" fill="#fff"/><path d="M349.27 981.48l-3.67 2.54-1.87-4.06c-2.85-6.34-8.7-10.23-15.66-10.27H328c-9.52 0-17.3 7.77-17.3 17.38v3.23l-2.7.8c-4.57 1.83-7.57 5.85-7.94 10.8v1.4c0 4.66 5.7 10.08 12.96 10.08h49c7.33 0 12.95-5.42 12.95-10.1v-1.4c0-4.7-5.25-10.87-11.3-11.35l-3.3-.26-.24-3.28c0-1.4-.44-2.54-1.2-3.68-2.17-3.2-6.5-3.98-9.66-1.8z" fill="#f58536"/><use xlink:href="#v" transform="matrix(1,0,0,1,280,1060) translate(19.876543209876544 17.77777777777778)"/><use xlink:href="#w" transform="matrix(1,0,0,1,280,1060) translate(16.172839506172842 44.44444444444444)"/><path d="M1155 642.36c0 31.8-25.76 57.63-57.5 57.63s-57.5-25.83-57.5-57.64c0-31.8 25.76-57.63 57.5-57.63s57.5 25.82 57.5 57.63z" fill="#9d5025"/><path d="M1155 637.63c0 31.8-25.76 57.63-57.5 57.63s-57.5-25.82-57.5-57.63c0-31.8 25.76-57.63 57.5-57.63s57.5 25.82 57.5 57.63z" fill="#f58536"/><path d="M1113.06 610.86h6.06v53.5h-6.06v-53.5zM1130.1 624.4l15.88 12.97-15.87 13.48V624.4z" fill="#fff"/><path d="M1073.98 634.6l3.5 2.8-3.85 3.26h59.15v-6.06h-58.8zM1073.63 613.9h45.5v-6.06h-45.14l3.45 2.82-3.82 3.25zM1077.45 664.15l-3.82 3.26h45.5v-6.06h-45.14l3.45 2.8zM1061 627.04l12.68 10.35-12.7 10.8v-21.16zM1061 600.3l12.68 10.35-12.7 10.8v-21.16zM1061 653.8l12.68 10.36-12.7 10.78V653.8z" fill="#fff"/><use xlink:href="#x" transform="matrix(1,0,0,1,1040,700) translate(36.388888888888886 17.77777777777778)"/><use xlink:href="#y" transform="matrix(1,0,0,1,1040,700) translate(6.9135802469135825 44.44444444444444)"/><use xlink:href="#f" transform="matrix(1,0,0,1,1040,700) translate(95.74074074074073 44.44444444444444)"/><path d="M1175 1481.36c0 31.8-25.76 57.63-57.5 57.63s-57.5-25.83-57.5-57.64c0-31.8 25.76-57.63 57.5-57.63s57.5 25.82 57.5 57.63z" fill="#9d5025"/><path d="M1175 1476.63c0 31.8-25.76 57.63-57.5 57.63s-57.5-25.82-57.5-57.63c0-31.8 25.76-57.63 57.5-57.63s57.5 25.82 57.5 57.63z" fill="#f58536"/><path d="M1133.06 1449.86h6.06v53.5h-6.06v-53.5zM1150.1 1463.4l15.88 12.97-15.87 13.48v-26.44z" fill="#fff"/><path d="M1093.98 1473.6l3.5 2.8-3.85 3.26h59.15v-6.06h-58.8zM1093.63 1452.9h45.5v-6.06h-45.14l3.45 2.82-3.82 3.25zM1097.45 1503.15l-3.82 3.26h45.5v-6.06h-45.14l3.45 2.8zM1081 1466.04l12.68 10.35-12.7 10.8v-21.16zM1081 1439.3l12.68 10.35-12.7 10.8v-21.16zM1081 1492.8l12.68 10.36-12.7 10.78v-21.14z" fill="#fff"/><use xlink:href="#x" transform="matrix(1,0,0,1,1060,1539) translate(36.388888888888886 17.77777777777778)"/><use xlink:href="#y" transform="matrix(1,0,0,1,1060,1539) translate(6.9135802469135825 44.44444444444444)"/><use xlink:href="#g" transform="matrix(1,0,0,1,1060,1539) translate(95.74074074074073 44.44444444444444)"/><path d="M1300 366c0-3.3 2.7-6 6-6h668c3.3 0 6 2.7 6 6v1228c0 3.3-2.7 6-6 6h-668c-3.3 0-6-2.7-6-6z" fill="#fff" fill-opacity="0"/><path d="M1316.4 360h8.9m5.94 0h8.9m5.94 0h8.9m5.94 0h8.9m5.95 0h8.9m5.94 0h8.92m5.94 0h8.9m5.94 0h8.9m5.95 0h8.9m5.94 0h8.9m5.94 0h8.9m5.94 0h8.9m5.94 0h8.9m5.95 0h8.9m5.94 0h8.92m5.94 0h8.9m5.94 0h8.9m5.95 0h8.9m5.94 0h8.9m5.94 0h8.9m5.94 0h8.9m5.94 0h8.9m5.95 0h8.9m5.94 0h8.92m5.94 0h8.9m5.94 0h8.9m5.95 0h8.9m5.94 0h8.9m5.94 0h8.9m5.94 0h8.9m5.94 0h8.9m5.95 0h8.9m5.94 0h8.92m5.94 0h8.9m5.94 0h8.9m5.95 0h8.9m5.94 0h8.9m5.94 0h8.9m5.94 0h8.9m5.94 0h8.9m5.95 0h8.9m5.94 0h8.92m5.94 0h8.9m5.94 0h8.9m5.95 0h4.45l3.03.82 2.15 2.15.82 3.03v4.5m0 5.98v9m0 5.98v8.98m0 6v8.98m0 6v8.98m0 6v8.97m0 6v8.98m0 6v8.97m0 6v8.98m0 6v8.97m0 6v8.98m0 6v8.97m0 6v8.98m0 6v8.98m0 6v8.97m0 6v8.98m0 6v8.97m0 6v8.98m0 6v8.97m0 6v8.98m0 6V670m0 6v8.98m0 6v8.98m0 6v8.97m0 6v8.98m0 6v8.98m0 6v8.98m0 6v8.97m0 6v8.98m0 6v9m0 5.98v8.98m0 6v8.98m0 6v8.97m0 6v9m0 5.98v8.98m0 6v8.98m0 6v8.97m0 6v9m0 5.98v9m0 5.98v8.98m0 6v8.98m0 6v8.97m0 5.98v9m0 5.98v8.98m0 6v8.98m0 6v8.98m0 6v8.97m0 6v8.98m0 6v8.97m0 6v8.98m0 6v8.97m0 6v8.98m0 6v8.97m0 6v8.98m0 6v8.98m0 6v8.97m0 6v8.98m0 6v8.97m0 6v8.98m0 6v8.97m0 6v8.98m0 6v8.97m0 6v8.98m0 6v8.98m0 6v8.97m0 6v8.98m0 6v8.98m0 6v8.98m0 6v8.97m0 6v8.98m0 6v9m0 5.98v8.98m0 6v8.98m0 6v8.97m0 6v9m0 5.98v8.98m0 6v8.98m0 6v8.97m0 6v9m0 5.98v9m0 5.98v8.98m0 6v8.98m0 6v4.48l-.82 3.03-2.15 2.15-3.03.82h-4.45m-5.94 0h-8.9m-5.94 0h-8.9m-5.94 0h-8.9m-5.94 0h-8.9m-5.95 0h-8.9m-5.94 0h-8.92m-5.94 0h-8.9m-5.94 0h-8.9m-5.95 0h-8.9m-5.94 0h-8.9m-5.94 0h-8.9m-5.94 0h-8.9m-5.94 0h-8.9m-5.95 0h-8.9m-5.94 0h-8.92m-5.94 0h-8.9m-5.94 0h-8.9m-5.95 0h-8.9m-5.94 0h-8.9m-5.94 0h-8.9m-5.94 0h-8.9m-5.94 0h-8.9m-5.95 0h-8.9m-5.94 0h-8.92m-5.94 0h-8.9m-5.94 0h-8.9m-5.95 0h-8.9m-5.94 0h-8.9m-5.94 0h-8.9m-5.94 0h-8.9m-5.94 0h-8.9m-5.95 0h-8.9m-5.94 0h-8.92m-5.94 0h-8.9m-5.94 0h-8.9m-5.95 0h-8.9m-5.94 0h-8.9m-5.94 0h-8.9m-5.94 0h-8.9m-5.94 0h-8.9m-5.95 0h-8.9m-5.94 0h-8.92m-5.94 0h-8.9m-5.94 0h-8.9m-5.95 0H1306l-3.03-.82-2.15-2.15-.82-3.03v-4.5m0-5.98v-9m0-5.98v-8.98m0-6v-8.98m0-6v-8.98m0-6v-8.97m0-6v-8.98m0-6v-8.97m0-6v-8.98m0-6v-8.97m0-6v-8.98m0-6v-8.97m0-6v-8.98m0-6v-8.98m0-6v-8.97m0-6v-8.98m0-6v-8.97m0-6v-8.98m0-6v-8.97m0-6v-8.98m0-6V1290m0-6v-8.98m0-6v-8.98m0-6v-8.97m0-6v-8.98m0-6v-8.98m0-6v-8.98m0-6v-8.97m0-6v-8.98m0-6v-9m0-5.98v-8.98m0-6v-8.98m0-6v-8.97m0-6v-9m0-5.98v-8.98m0-6v-8.98m0-6v-8.97m0-6v-9m0-5.98v-9m0-5.98v-8.98m0-6v-8.98m0-6v-8.97m0-5.98v-9m0-5.98v-8.98m0-6v-8.98m0-6v-8.98m0-6v-8.97m0-6v-8.98m0-6v-8.97m0-6v-8.98m0-6v-8.97m0-6v-8.98m0-6v-8.97m0-6v-8.98m0-6v-8.98m0-6v-8.97m0-6v-8.98m0-6v-8.97m0-6v-8.98m0-6v-8.97m0-6v-8.98m0-6V676m0-6v-8.98m0-6v-8.98m0-6v-8.97m0-6v-8.98m0-6v-8.98m0-6v-8.98m0-6v-8.97m0-6v-8.98m0-6v-9m0-5.98v-8.98m0-6v-8.98m0-6v-8.97m0-6v-9m0-5.98v-8.98m0-6v-8.98m0-6v-8.97m0-6v-9m0-5.98v-9m0-5.98v-8.98m0-6v-8.98m0-6V366l.82-3.03 2.15-2.15 3.03-.82h4.45" stroke="#d86613" stroke-width="3" fill="none"/><path d="M1612 360h56v56h-56v-56z" stroke="#fff" stroke-opacity="0" fill="#d86613"/><path d="M1631.68 383.73l-1.14 1.13 2.33 2.34H1620v1.6h12.87l-2.33 2.34 1.14 1.13 4.27-4.27-4.27-4.27zM1660 387.2h-12.87l2.33-2.34-1.14-1.13-4.27 4.27 4.27 4.27 1.14-1.13-2.33-2.34H1660v-1.6zM1639.2 370.63v12.87h1.6v-12.87l2.34 2.33 1.13-1.13-4.27-4.28-4.27 4.28 1.13 1.13 2.34-2.33zM1640.8 405.37V392.5h-1.6v12.87l-2.34-2.33-1.13 1.13 4.27 4.28 4.27-4.28-1.13-1.13-2.34 2.33z" stroke="#fff" stroke-opacity="0" fill="#fff"/><use xlink:href="#z" transform="matrix(1,0,0,1,1299.9999999999998,431) translate(289.55 14.4)"/><use xlink:href="#A" transform="matrix(1,0,0,1,1299.9999999999998,431) translate(331.55 14.4)"/><path d="M1420 1380h120v120h-120v-120z" stroke="#fff" stroke-opacity="0" stroke-width="2" fill="#d86613"/><path d="M1516.8 1444.8h-8.02v-3.18h8.02v-38.44h-38.44v8.02h-3.18v-8.02c0-1.75 1.44-3.18 3.18-3.18h38.44c1.75 0 3.18 1.43 3.18 3.18v38.44c0 1.75-1.43 3.18-3.18 3.18zM1481.6 1480h-38.44c-1.74 0-3.18-1.43-3.18-3.18v-38.44c0-1.75 1.44-3.18 3.18-3.18h8.02v3.18h-8.02v38.44h38.44v-8.02h3.18v8.02c0 1.75-1.43 3.18-3.18 3.18z" stroke="#fff" stroke-opacity="0" stroke-width="2" fill="#fff"/><path d="M1505.6 1425.6v-3.2h-4.8c-.12-1.7-1.5-3.08-3.2-3.2v-4.8h-3.2v4.8h-4.77v-4.8h-3.23v4.8h-4.8v-4.8h-3.2v4.8h-4.8v-4.8h-3.17v4.8h-4.82v-4.8h-3.2v4.8c-1.7.12-3.08 1.5-3.2 3.2h-4.8v3.2h4.8v4.83h-4.8v3.17h4.8v4.8h-4.8v3.2h4.8v4.8h-4.8v3.23h4.8v4.76h-4.8v3.2h4.8c.12 1.7 1.5 3.08 3.2 3.2v4.8h3.2v-4.8h4.83v4.8h3.17v-4.8h4.8v4.8h3.2v-4.8h4.8v4.8h3.23v-4.8h4.76v4.8h3.2v-4.8c1.7-.12 3.08-1.5 3.2-3.2h4.8v-3.2h-4.8v-4.77h4.8v-3.23h-4.8v-4.8h4.8v-3.2h-4.8v-4.8h4.8v-3.17h-4.8v-4.82zm-8 31.7c0 .16-.14.3-.3.3h-34.6c-.16 0-.3-.14-.3-.3v-34.6c0-.16.14-.3.3-.3h34.6c.16 0 .3.14.3.3z" stroke="#fff" stroke-opacity="0" stroke-width="2" fill="#fff"/><use xlink:href="#B" transform="matrix(1,0,0,1,1390,1509) translate(66.01851851851852 17.77777777777778)"/><path d="M575 902.36c0 31.8-25.76 57.63-57.5 57.63S460 934.16 460 902.35c0-31.8 25.76-57.63 57.5-57.63s57.5 25.82 57.5 57.63z" fill="#9d5025"/><path d="M575 897.63c0 31.8-25.76 57.63-57.5 57.63S460 929.44 460 897.63c0-31.8 25.76-57.63 57.5-57.63s57.5 25.82 57.5 57.63z" fill="#f58536"/><path d="M534.27 851.08V872H500.7v-20.92h33.57zM560.22 911.64v17.04h-17v-17.04h17zM538.73 911.64v17.04h-17v-17.04h17zM512.55 911.64v17.04h-17v-17.04h17zM491.05 911.64v17.04h-17v-17.04h17z" fill="#fff"/><path d="M481.02 896.9h3.06v16.7h-3.06v-16.7z" fill="#fff"/><path d="M481.02 896.9h24.57v3.05H481v-3.06z" fill="#fff"/><path d="M502.53 896.9h3.06v16.7h-3.07v-16.7zM528.7 896.9h3.06v16.7h-3.06v-16.7z" fill="#fff"/><path d="M528.7 896.9h24.56v3.05H528.7v-3.06z" fill="#fff"/><path d="M550.2 896.9h3.06v16.7h-3.05v-16.7zM491.8 884.95h3.06v13.47h-3.06v-13.47zM515.96 868.92h3.06v16.28h-3.06v-16.28z" fill="#fff"/><path d="M491.8 883.67h50.77v3.06H491.8v-3.06z" fill="#fff"/><path d="M539.5 884.95h3.07v13.47h-3.06v-13.47z" fill="#fff"/><use xlink:href="#C" transform="matrix(1,0,0,1,460,960) translate(32.808641975308646 17.77777777777778)"/><use xlink:href="#D" transform="matrix(1,0,0,1,460,960) translate(13.734567901234563 44.44444444444444)"/><path d="M1360 1390c0-16.57 13.43-30 30-30h460c16.57 0 30 13.43 30 30v160c0 16.57-13.43 30-30 30h-460c-16.57 0-30-13.43-30-30z" stroke="#474747" stroke-width="3" fill-opacity="0"/><path d="M1360 1390c0-16.57 13.43-30 30-30h460c16.57 0 30 13.43 30 30v160c0 16.57-13.43 30-30 30h-460c-16.57 0-30-13.43-30-30z" fill="none"/><path d="M1375.04 1364.1l3.17-1.7 4.72-1.56 4.93-.76 2.15-.08h15.33m15.34 0h30.66m15.34 0h30.66m15.34 0h30.66m15.34 0h30.66m15.34 0h30.66m15.34 0h30.66m15.34 0h30.66m15.34 0h30.66m15.34 0h30.66m15.34 0H1850l5 .42 4.82 1.22 4.54 2 .6.42m10.95 10.98l1.7 3.17 1.56 4.72.76 4.93.08 2.15v13.33m0 13.34v26.66m0 13.34v26.66m0 13.34v26.66m0 13.34V1550l-.42 5-1.22 4.82-2 4.54-.42.6m-10.98 10.95l-3.17 1.7-4.72 1.56-4.93.76-2.15.08h-15.33m-15.34 0h-30.66m-15.34 0h-30.66m-15.34 0h-30.66m-15.34 0h-30.66m-15.34 0h-30.66m-15.34 0h-30.66m-15.34 0h-30.66m-15.34 0h-30.66m-15.34 0h-30.66m-15.34 0H1390l-5-.42-4.82-1.22-4.54-2-.6-.42m-10.95-10.98l-1.7-3.17-1.56-4.72-.76-4.93-.08-2.15v-13.33m0-13.34v-26.66m0-13.34v-26.66m0-13.34v-26.66m0-13.34V1390l.42-5 1.22-4.82 2-4.54.42-.6" stroke="red" stroke-width="3" fill="none"/><use xlink:href="#E" transform="matrix(1,0,0,1,1360,1550) translate(127.68518518518516 11.11111111111111)"/><use xlink:href="#F" transform="matrix(1,0,0,1,1360,1550) translate(244.35185185185185 11.11111111111111)"/><use xlink:href="#G" transform="matrix(1,0,0,1,1360,1550) translate(330.64814814814815 11.11111111111111)"/><path d="M640 1063.65h120v29.6H640v-29.6z" fill="#9d5025"/><path d="M640 1060h120v28.8H640V1060z" fill="#f58536"/><path d="M640 1102.07h120v30.9H640v-30.9z" fill="#9d5025"/><path d="M640 1099.72h120v28.8H640v-28.8z" fill="#f58536"/><path d="M640 1141.07h120V1171H640v-29.93z" fill="#9d5025"/><path d="M640 1137.72h120v28.8H640v-28.8z" fill="#f58536"/><path d="M654.74 1083h-2.68v-12.74h-3.6v-1.8h.3c1.66 0 3.5-.4 4.03-2.63v-.35h1.94zM670.2 1068c-3.2 4.65-4.85 9.34-5.36 14.97h-2.9c.63-5.57 2.38-10.17 5.68-14.67h-7.52v-2.54h10.1zm12.25 14.97h-10c0-7.64 7.22-7.46 7.22-12.9 0-1.45-.62-2.65-2.17-2.65-2.06 0-2.36 1.8-2.36 3.6h-2.58c0-3.5 1.34-5.66 5.05-5.66 2.38-.3 4.54 1.38 4.85 3.76v.92c0 5.82-5.56 6.18-6.9 10.48h6.9zm5.87 0h-2.78v-3.27h2.78zm10 0h-2.8v-12.74h-3.6v-1.8h.3c1.66 0 3.62-.4 4.03-2.63v-.35h2.06zm10.3.34c-4.34 0-5.16-3.37-5.16-8.42 0-5.02.93-9.5 5.36-9.5 3.1 0 4.63 1.4 4.63 4.28h-2.68c0-1-.5-2.3-1.85-2.3-2.58 0-2.68 3.5-2.68 6.06.72-1.22 1.96-1.9 3.3-1.8 2.37 0 4.22 1.8 4.22 5.23.1 4.04-1.55 6.45-5.15 6.45zm10.9-.35h-2.77v-3.27h2.78zm8.04.34c-3.3 0-5.15-2.13-5.15-9 0-6.88 1.76-9 5.16-9 3.3 0 5.05 2.14 5.05 9 0 6.85-1.74 9-5.04 9zm10.7-.35h-2.67v-3.27h2.78zm8.05.34c-3.3 0-5.14-2.13-5.14-9 0-6.88 1.85-9 5.15-9 3.4 0 5.16 2.14 5.16 9 0 6.85-1.75 9-5.05 9zM746.36 1105.2c3.3 0 5.16 2.13 5.16 9 0 6.9-1.76 9-5.16 9-3.3 0-5.15-2.2-5.15-9.05 0-6.86 1.87-8.94 5.16-8.94zm-10.7 14.27h2.77v3.34h-2.9zm-12.38-11.3h.2c1.65 0 3.6-.4 4.02-2.62v-.34h2.07v17.6h-2.9V1110h-3.5zm-6.5 11.3h2.8v3.34h-2.9zm-7.83-14.26c3 0 4.64 1.38 4.64 4.26h-2.9c0-1-.4-2.28-1.75-2.28-2.57 0-2.68 3.5-2.68 6.05.62-1.2 1.86-1.88 3.3-1.8 2.37 0 4.23 1.8 4.23 5.24 0 4.05-1.65 6.44-5.26 6.44-4.33 0-5.15-3.35-5.15-8.4 0-5.04 1.02-9.5 5.55-9.5zm-16.9 2.98h.2c1.66 0 3.62-.4 4.03-2.63v-.34h2.06v17.6h-2.78V1110h-3.6zm-6.5 11.3h2.8v3.33h-2.8zm-8.03-12.3c-2.06 0-2.37 1.8-2.37 3.6h-2.57c0-3.5 1.33-5.64 5.04-5.64 2.38-.3 4.54 1.4 4.75 3.76.1.33.1.6.1.9 0 5.84-5.57 6.2-6.9 10.5h6.9v2.5h-10c0-7.62 7.22-7.44 7.22-12.92 0-1.47-.63-2.7-2.18-2.7zm-17.4-1.63h10.08v2.23c-3.2 4.65-4.84 9.34-5.35 14.97h-2.9c.63-5.56 2.38-10.16 5.68-14.66h-7.52zm-11.56 2.63h.2c1.66 0 3.62-.4 4.03-2.63v-.34h2.05v17.6h-2.78V1110h-3.6zM746.36 1143.25c3.3 0 5.16 2.12 5.16 9 0 6.87-1.76 9-5.16 9-3.3 0-5.15-2.25-5.15-9.06 0-6.82 1.87-8.95 5.16-8.95zm-10.7 14.26h2.77v3.3h-2.9zm-8.05-12.28c-2.05 0-2.36 1.8-2.36 3.6h-2.68c0-3.5 1.44-5.64 5.05-5.64 2.38-.3 4.54 1.4 4.85 3.76v.9c0 5.82-5.56 6.2-6.9 10.5h7v2.45h-10c0-7.63 7.12-7.47 7.12-12.94 0-1.43-.52-2.64-2.06-2.64zm-10.8 12.3h2.77v3.27h-2.9zm-7.85-14.27c3 0 4.64 1.37 4.64 4.25h-2.9c0-1-.4-2.28-1.75-2.28-2.57 0-2.68 3.5-2.68 6.05.62-1.22 1.86-1.9 3.3-1.8 2.37 0 4.23 1.8 4.23 5.24 0 4.06-1.65 6.45-5.26 6.45-4.33 0-5.15-3.36-5.15-8.4 0-5.05 1.02-9.5 5.55-9.5zm-16.9 2.97h.2c1.66 0 3.62-.4 4.03-2.63v-.35h2.06v17.54h-2.78V1148h-3.6zm-6.5 11.3h2.8v3.27h-2.8zm-8.03-12.3c-2.06 0-2.37 1.8-2.37 3.6h-2.57c0-3.5 1.33-5.64 5.04-5.64 2.38-.3 4.54 1.4 4.75 3.76.1.33.1.6.1.9 0 5.82-5.57 6.2-6.9 10.5h6.9v2.45h-10c0-7.63 7.22-7.47 7.22-12.94 0-1.43-.63-2.64-2.18-2.64zm-17.4-1.63h10.08v2.22c-3.2 4.65-4.84 9.34-5.35 14.97h-2.9c.63-5.57 2.38-10.17 5.68-14.67h-7.52zm-11.66 2.62h.3c1.66 0 3.62-.4 4.03-2.63v-.35h1.95v17.54h-2.68V1148h-3.6z" fill="#fff"/><path d="M727.53 1067.7c-1.88 0-2.37 1.8-2.37 6.97s.5 6.96 2.37 6.96c1.88 0 2.36-1.8 2.36-6.96 0-5.17-.5-6.97-2.37-6.97zM746.38 1067.7c-1.88 0-2.36 1.8-2.36 6.97s.48 6.96 2.36 6.96 2.36-1.8 2.36-6.96c0-5.17-.48-6.97-2.36-6.97zM746.38 1121.37c1.88 0 2.36-1.8 2.36-6.96s-.48-6.96-2.36-6.96-2.36 1.8-2.36 6.97.46 6.97 2.36 6.97zM708.84 1121.37c1.68 0 2.27-1.8 2.27-3.76 0-2.42-.7-3.8-2.26-3.8-2 0-2.36 1.8-2.36 3.94 0 2.12.68 3.63 2.36 3.63zM746.38 1159.4c1.88 0 2.36-1.8 2.36-6.95 0-5.17-.48-6.97-2.36-6.97s-2.36 1.8-2.36 6.97c0 5.16.46 6.96 2.36 6.96zM708.84 1159.4c1.68 0 2.27-1.8 2.27-3.75 0-2.43-.7-3.8-2.26-3.8-2 0-2.36 1.8-2.36 3.93 0 2.12.68 3.63 2.36 3.63zM708.84 1081.63c1.68 0 2.27-1.8 2.27-3.76 0-2.43-.7-3.8-2.26-3.8-2 0-2.36 1.8-2.36 3.93 0 2.12.68 3.63 2.36 3.63z" fill="#f58536"/><use xlink:href="#m" transform="matrix(1,0,0,1,640,1171) translate(1.4506172839506206 17.77777777777778)"/><use xlink:href="#H" transform="matrix(1,0,0,1,640,1171) translate(67.99382716049382 17.77777777777778)"/><use xlink:href="#I" transform="matrix(1,0,0,1,640,1171) translate(35.95679012345679 44.44444444444444)"/><path d="M2418 945.42l57.98 8.62v5.1c0 7.53-25.98 13.63-58 13.63-32 0-57.98-6.1-57.98-13.64v-5.53z" fill="#8c3123"/><path d="M2418.02 982.13c24.2 0 44.93-3.54 53.58-8.5l2.88-4.78 1.15-4.4v5.45l-19 81c0 5.08-17.3 9.1-38.6 9.1-21.33 0-38.6-4.02-38.6-9.1l-19.02-81v-5.35l4.38 9.27c8.76 4.87 29.27 8.3 53.24 8.3z" fill="#8c3123"/><path d="M2418 940c32 0 58 6.12 58 13.62 0 7.5-26 13.57-58 13.57s-58-6.02-58-13.58c0-7.56 26-13.62 58-13.62z" fill="#e05243"/><path d="M2418 976.6c29.84 0 54.4-5.2 57.62-12.06l-19.02 81c0 5.05-17.3 9.1-38.6 9.1-21.33 0-38.6-4.05-38.6-9.1l-19.03-81c3.23 6.85 27.78 12.07 57.62 12.07z" fill="#e05243"/><use xlink:href="#J" transform="matrix(1,0,0,1,2360,1060) translate(7.382716049382708 17.77777777777778)"/><use xlink:href="#K" transform="matrix(1,0,0,1,2360,1060) translate(40.716049382716044 17.77777777777778)"/><path d="M160.75 1010H263.1" stroke="#9a9a9a" stroke-width="1.5" fill="none"/><path d="M160.77 1010.75h-.85l.08-.2v-1.3h.77z" fill="#9a9a9a"/><path d="M278.13 1010l-14.27 4.64v-9.28z" stroke="#9a9a9a" stroke-width="1.5" fill="#9a9a9a"/><path d="M1160 1083.65h122.5v29.6H1160v-29.6z" fill="#9d5025"/><path d="M1160 1080h122.5v28.8H1160V1080z" fill="#f58536"/><path d="M1160 1122.07h122.5v30.9H1160v-30.9z" fill="#9d5025"/><path d="M1160 1119.72h122.5v28.8H1160v-28.8z" fill="#f58536"/><path d="M1160 1161.07h122.5V1191H1160v-29.93z" fill="#9d5025"/><path d="M1160 1157.72h122.5v28.8H1160v-28.8z" fill="#f58536"/><path d="M1175.05 1103h-2.73v-12.74h-3.68v-1.8h.3c1.7 0 3.6-.4 4.1-2.63v-.35h2zm15.77-14.98c-3.26 4.65-4.94 9.34-5.47 14.97h-2.94c.64-5.57 2.43-10.17 5.8-14.67h-7.68v-2.54h10.3zm12.5 14.97h-10.2c0-7.64 7.37-7.46 7.37-12.9 0-1.45-.64-2.65-2.2-2.65-2.12 0-2.43 1.8-2.43 3.6h-2.63c0-3.5 1.37-5.66 5.15-5.66 2.4-.3 4.62 1.38 4.93 3.76v.92c0 5.82-5.67 6.18-7.04 10.48h7.03zm6 0h-2.83v-3.27h2.83zm10.2 0h-2.83v-12.74h-3.7v-1.8h.32c1.68 0 3.68-.4 4.1-2.63v-.35h2.1zm10.52.34c-4.42 0-5.26-3.37-5.26-8.42 0-5.02.95-9.5 5.47-9.5 3.15 0 4.73 1.4 4.73 4.28h-2.73c0-1-.53-2.3-1.9-2.3-2.62 0-2.73 3.5-2.73 6.06.74-1.22 2-1.9 3.37-1.8 2.4 0 4.3 1.8 4.3 5.23.1 4.04-1.58 6.45-5.26 6.45zm11.14-.35h-2.83v-3.27h2.83zm8.2.34c-3.36 0-5.25-2.13-5.25-9 0-6.88 1.8-9 5.26-9 3.35 0 5.14 2.14 5.14 9 0 6.85-1.8 9-5.15 9zm10.94-.35h-2.73v-3.27h2.82zm8.2.34c-3.36 0-5.26-2.13-5.26-9 0-6.88 1.9-9 5.26-9 3.47 0 5.26 2.14 5.26 9 0 6.85-1.8 9-5.15 9zM1268.58 1125.2c3.37 0 5.26 2.13 5.26 9 0 6.9-1.8 9-5.26 9-3.37 0-5.26-2.2-5.26-9.05 0-6.86 1.9-8.94 5.26-8.94zm-10.94 14.27h2.84v3.34h-2.95zm-12.63-11.3h.22c1.7 0 3.7-.4 4.1-2.62v-.34h2.1v17.6h-2.93V1130h-3.6zm-6.6 11.3h2.83v3.34h-2.95zm-8-14.26c3.04 0 4.72 1.38 4.72 4.26h-2.94c0-1-.42-2.28-1.8-2.28-2.62 0-2.72 3.5-2.72 6.05.63-1.2 1.9-1.88 3.36-1.8 2.42 0 4.3 1.8 4.3 5.24 0 4.05-1.67 6.44-5.35 6.44-4.42 0-5.26-3.35-5.26-8.4 0-5.04 1.06-9.5 5.7-9.5zm-17.26 2.98h.2c1.7 0 3.7-.4 4.1-2.63v-.34h2.1v17.6h-2.83V1130h-3.67zm-6.63 11.3h2.85v3.33h-2.84zm-8.2-12.3c-2.1 0-2.42 1.8-2.42 3.6h-2.63c0-3.5 1.37-5.64 5.16-5.64 2.43-.3 4.64 1.4 4.85 3.76.1.33.1.6.1.9 0 5.84-5.68 6.2-7.05 10.5h7.05v2.5h-10.2c0-7.62 7.36-7.44 7.36-12.92 0-1.47-.62-2.7-2.2-2.7zm-17.78-1.63h10.3v2.23c-3.25 4.65-4.93 9.34-5.46 14.97h-2.94c.63-5.56 2.42-10.16 5.78-14.66h-7.68zm-11.78 2.63h.2c1.7 0 3.7-.4 4.1-2.63v-.34h2.12v17.6h-2.84V1130h-3.68zM1268.58 1163.25c3.37 0 5.26 2.12 5.26 9 0 6.87-1.8 9-5.26 9-3.37 0-5.26-2.25-5.26-9.06 0-6.82 1.9-8.95 5.26-8.95zm-10.94 14.26h2.84v3.3h-2.95zm-8.2-12.28c-2.1 0-2.43 1.8-2.43 3.6h-2.72c0-3.5 1.47-5.64 5.15-5.64 2.42-.3 4.63 1.4 4.95 3.76v.9c0 5.82-5.68 6.2-7.05 10.5h7.15v2.45h-10.2c0-7.63 7.26-7.47 7.26-12.94 0-1.43-.53-2.64-2.1-2.64zm-11.05 12.3h2.83v3.27h-2.95zm-8-14.27c3.04 0 4.72 1.37 4.72 4.25h-2.94c0-1-.42-2.28-1.8-2.28-2.62 0-2.72 3.5-2.72 6.05.63-1.22 1.9-1.9 3.36-1.8 2.42 0 4.3 1.8 4.3 5.24 0 4.06-1.67 6.45-5.35 6.45-4.42 0-5.26-3.36-5.26-8.4 0-5.05 1.06-9.5 5.7-9.5zm-17.26 2.97h.2c1.7 0 3.7-.4 4.1-2.63v-.35h2.1v17.54h-2.83V1168h-3.67zm-6.63 11.3h2.85v3.27h-2.84zm-8.2-12.3c-2.1 0-2.42 1.8-2.42 3.6h-2.63c0-3.5 1.37-5.64 5.16-5.64 2.43-.3 4.64 1.4 4.85 3.76.1.33.1.6.1.9 0 5.82-5.68 6.2-7.05 10.5h7.05v2.45h-10.2c0-7.63 7.36-7.47 7.36-12.94 0-1.43-.62-2.64-2.2-2.64zm-17.78-1.63h10.3v2.22c-3.25 4.65-4.93 9.34-5.46 14.97h-2.94c.63-5.57 2.42-10.17 5.78-14.67h-7.68zm-11.88 2.62h.3c1.7 0 3.7-.4 4.1-2.63v-.35h2v17.54h-2.72V1168h-3.68z" fill="#fff"/><path d="M1249.35 1087.7c-1.92 0-2.4 1.8-2.4 6.97s.48 6.96 2.4 6.96 2.4-1.8 2.4-6.96c0-5.17-.48-6.97-2.4-6.97zM1268.6 1087.7c-1.92 0-2.42 1.8-2.42 6.97s.5 6.96 2.42 6.96 2.4-1.8 2.4-6.96c0-5.17-.48-6.97-2.4-6.97zM1268.6 1141.37c1.92 0 2.4-1.8 2.4-6.96s-.48-6.96-2.4-6.96-2.42 1.8-2.42 6.97.48 6.97 2.42 6.97zM1230.28 1141.37c1.7 0 2.3-1.8 2.3-3.76 0-2.42-.7-3.8-2.3-3.8-2.05 0-2.4 1.8-2.4 3.94-.02 2.12.68 3.63 2.4 3.63zM1268.6 1179.4c1.92 0 2.4-1.8 2.4-6.95 0-5.17-.48-6.97-2.4-6.97s-2.42 1.8-2.42 6.97c0 5.16.48 6.96 2.42 6.96zM1230.28 1179.4c1.7 0 2.3-1.8 2.3-3.75 0-2.43-.7-3.8-2.3-3.8-2.05 0-2.4 1.8-2.4 3.93-.02 2.12.68 3.63 2.4 3.63zM1230.28 1101.63c1.7 0 2.3-1.8 2.3-3.76 0-2.43-.7-3.8-2.3-3.8-2.05 0-2.4 1.8-2.4 3.93-.02 2.12.68 3.63 2.4 3.63z" fill="#f58536"/><use xlink:href="#L" transform="matrix(1,0,0,1,1160,1191) translate(26.993827160493822 17.77777777777778)"/><use xlink:href="#M" transform="matrix(1,0,0,1,1160,1191) translate(9.092592592592595 44.44444444444444)"/><use xlink:href="#N" transform="matrix(1,0,0,1,1160,1191) translate(65.82098765432099 44.44444444444444)"/><use xlink:href="#g" transform="matrix(1,0,0,1,1160,1191) translate(55.32716049382716 71.11111111111111)"/><path d="M1040 903.65h120v29.6h-120v-29.6z" fill="#9d5025"/><path d="M1040 900h120v28.8h-120V900z" fill="#f58536"/><path d="M1040 942.07h120v30.9h-120v-30.9z" fill="#9d5025"/><path d="M1040 939.72h120v28.8h-120v-28.8z" fill="#f58536"/><path d="M1040 981.07h120V1011h-120v-29.93z" fill="#9d5025"/><path d="M1040 977.72h120v28.8h-120v-28.8z" fill="#f58536"/><path d="M1054.74 923h-2.68v-12.74h-3.6v-1.8h.3c1.66 0 3.5-.4 4.03-2.63v-.35h1.94zM1070.2 908c-3.2 4.65-4.85 9.34-5.36 14.97h-2.9c.63-5.57 2.38-10.17 5.68-14.67h-7.52v-2.54h10.1zm12.25 14.97h-10c0-7.64 7.22-7.46 7.22-12.9 0-1.45-.62-2.65-2.17-2.65-2.06 0-2.36 1.8-2.36 3.6h-2.58c0-3.5 1.34-5.66 5.05-5.66 2.38-.3 4.54 1.38 4.85 3.76v.92c0 5.82-5.56 6.18-6.9 10.48h6.9zm5.87 0h-2.78v-3.27h2.78zm10 0h-2.8v-12.74h-3.6v-1.8h.3c1.66 0 3.62-.4 4.03-2.63v-.35h2.06zm10.3.34c-4.34 0-5.16-3.37-5.16-8.42 0-5.02.93-9.5 5.36-9.5 3.1 0 4.63 1.4 4.63 4.28h-2.68c0-1-.5-2.3-1.85-2.3-2.58 0-2.68 3.5-2.68 6.06.72-1.22 1.96-1.9 3.3-1.8 2.37 0 4.22 1.8 4.22 5.23.1 4.04-1.55 6.45-5.15 6.45zm10.9-.35h-2.77v-3.27h2.78zm8.04.34c-3.3 0-5.15-2.13-5.15-9 0-6.88 1.76-9 5.16-9 3.3 0 5.05 2.14 5.05 9 0 6.85-1.74 9-5.04 9zm10.7-.35h-2.67v-3.27h2.78zm8.05.34c-3.3 0-5.14-2.13-5.14-9 0-6.88 1.85-9 5.15-9 3.4 0 5.16 2.14 5.16 9 0 6.85-1.75 9-5.05 9zM1146.36 945.2c3.3 0 5.16 2.13 5.16 9 0 6.9-1.76 9-5.16 9-3.3 0-5.15-2.2-5.15-9.05 0-6.86 1.87-8.94 5.16-8.94zm-10.7 14.27h2.77v3.34h-2.9zm-12.38-11.3h.2c1.65 0 3.6-.4 4.02-2.62v-.34h2.07v17.6h-2.9V950h-3.5zm-6.5 11.3h2.8v3.34h-2.9zm-7.83-14.26c3 0 4.64 1.38 4.64 4.26h-2.9c0-1-.4-2.28-1.75-2.28-2.57 0-2.68 3.5-2.68 6.05.62-1.2 1.86-1.88 3.3-1.8 2.37 0 4.23 1.8 4.23 5.24 0 4.05-1.65 6.44-5.26 6.44-4.33 0-5.15-3.35-5.15-8.4 0-5.04 1.02-9.5 5.55-9.5zm-16.9 2.98h.2c1.66 0 3.62-.4 4.03-2.63v-.34h2.06v17.6h-2.78V950h-3.6zm-6.5 11.3h2.8v3.33h-2.8zm-8.03-12.3c-2.06 0-2.37 1.8-2.37 3.6h-2.57c0-3.5 1.33-5.64 5.04-5.64 2.38-.3 4.54 1.4 4.75 3.76.1.33.1.6.1.9 0 5.84-5.57 6.2-6.9 10.5h6.9v2.5h-10c0-7.62 7.22-7.44 7.22-12.92 0-1.47-.63-2.7-2.18-2.7zm-17.4-1.63h10.08v2.23c-3.2 4.65-4.84 9.34-5.35 14.97h-2.9c.63-5.56 2.38-10.16 5.68-14.66h-7.52zm-11.56 2.63h.2c1.66 0 3.62-.4 4.03-2.63v-.34h2.05v17.6h-2.78V950h-3.6zM1146.36 983.25c3.3 0 5.16 2.12 5.16 9 0 6.87-1.76 9-5.16 9-3.3 0-5.15-2.25-5.15-9.06 0-6.82 1.87-8.95 5.16-8.95zm-10.7 14.26h2.77v3.3h-2.9zm-8.05-12.28c-2.05 0-2.36 1.8-2.36 3.6h-2.68c0-3.5 1.44-5.64 5.05-5.64 2.38-.3 4.54 1.4 4.85 3.76v.9c0 5.82-5.56 6.2-6.9 10.5h7v2.45h-10c0-7.63 7.12-7.47 7.12-12.94 0-1.43-.52-2.64-2.06-2.64zm-10.8 12.3h2.77v3.27h-2.9zm-7.85-14.27c3 0 4.64 1.37 4.64 4.25h-2.9c0-1-.4-2.28-1.75-2.28-2.57 0-2.68 3.5-2.68 6.05.62-1.22 1.86-1.9 3.3-1.8 2.37 0 4.23 1.8 4.23 5.24 0 4.06-1.65 6.45-5.26 6.45-4.33 0-5.15-3.36-5.15-8.4 0-5.05 1.02-9.5 5.55-9.5zm-16.9 2.97h.2c1.66 0 3.62-.4 4.03-2.63v-.35h2.06v17.54h-2.78V988h-3.6zm-6.5 11.3h2.8v3.27h-2.8zm-8.03-12.3c-2.06 0-2.37 1.8-2.37 3.6h-2.57c0-3.5 1.33-5.64 5.04-5.64 2.38-.3 4.54 1.4 4.75 3.76.1.33.1.6.1.9 0 5.82-5.57 6.2-6.9 10.5h6.9v2.45h-10c0-7.63 7.22-7.47 7.22-12.94 0-1.43-.63-2.64-2.18-2.64zm-17.4-1.63h10.08v2.22c-3.2 4.65-4.84 9.34-5.35 14.97h-2.9c.63-5.57 2.38-10.17 5.68-14.67h-7.52zm-11.66 2.62h.3c1.66 0 3.62-.4 4.03-2.63v-.35h1.95v17.54h-2.68V988h-3.6z" fill="#fff"/><path d="M1127.53 907.7c-1.88 0-2.37 1.8-2.37 6.97s.5 6.96 2.37 6.96c1.88 0 2.36-1.8 2.36-6.96 0-5.17-.5-6.97-2.37-6.97zM1146.38 907.7c-1.88 0-2.36 1.8-2.36 6.97s.48 6.96 2.36 6.96 2.36-1.8 2.36-6.96c0-5.17-.48-6.97-2.36-6.97zM1146.38 961.37c1.88 0 2.36-1.8 2.36-6.96s-.48-6.96-2.36-6.96-2.36 1.8-2.36 6.97.46 6.97 2.36 6.97zM1108.84 961.37c1.68 0 2.27-1.8 2.27-3.76 0-2.42-.7-3.8-2.26-3.8-2 0-2.36 1.8-2.36 3.94 0 2.12.68 3.63 2.36 3.63zM1146.38 999.4c1.88 0 2.36-1.8 2.36-6.95 0-5.17-.48-6.97-2.36-6.97s-2.36 1.8-2.36 6.97c0 5.16.46 6.96 2.36 6.96zM1108.84 999.4c1.68 0 2.27-1.8 2.27-3.75 0-2.43-.7-3.8-2.26-3.8-2 0-2.36 1.8-2.36 3.93 0 2.12.68 3.63 2.36 3.63zM1108.84 921.63c1.68 0 2.27-1.8 2.27-3.76 0-2.43-.7-3.8-2.26-3.8-2 0-2.36 1.8-2.36 3.93 0 2.12.68 3.63 2.36 3.63z" fill="#f58536"/><use xlink:href="#L" transform="matrix(1,0,0,1,1040,1011) translate(25.493827160493822 17.77777777777778)"/><use xlink:href="#M" transform="matrix(1,0,0,1,1040,1011) translate(7.592592592592595 44.44444444444444)"/><use xlink:href="#N" transform="matrix(1,0,0,1,1040,1011) translate(64.32098765432099 44.44444444444444)"/><use xlink:href="#f" transform="matrix(1,0,0,1,1040,1011) translate(53.82716049382716 71.11111111111111)"/><path d="M940.52 627.42l28.68 10.7.36.2 10.44-.52v4.4l-9.96 3.74-.48.2-.36.15-28.68 10.7v-10.7h-54.36c-2.16 7.12-9.72 11.14-16.68 8.95-5.76-1.77-9.48-6.95-9.48-13.04v-4.4l26.16.45h54.36z" fill="#9d5025"/><path d="M940.47 623l28.74 10.7.37.18.48.14 9.94 3.8-9.83 3.68-.48.2-.5.15-28.6 10.7v-10.72h-54.5c-2.27 7.06-9.7 10.96-16.64 8.7-6.94-2.2-10.78-9.74-8.62-16.77 2.27-7.07 9.7-10.97 16.64-8.72 4.2 1.36 7.3 4.4 8.63 8.72h54.37z" fill="#f58536"/><use xlink:href="#O" transform="matrix(1,0,0,1,860,657) translate(13.981481481481488 17.77777777777778)"/><use xlink:href="#P" transform="matrix(1,0,0,1,860,657) translate(85.46296296296296 17.77777777777778)"/><use xlink:href="#Q" transform="matrix(1,0,0,1,860,657) translate(20.52469135802469 44.44444444444444)"/><path d="M975.02 644.82c0 2.86 2.3 5.18 5.17 5.18h42.9" stroke="#9a9a9a" stroke-width="1.5" fill="none"/><path d="M975.77 644.84h-1.5v-.5l1.5-.55z" fill="#9a9a9a"/><path d="M1038.13 650l-14.27 4.64v-9.28z" stroke="#9a9a9a" stroke-width="1.5" fill="#9a9a9a"/><path d="M940.52 1466.42l28.68 10.7.36.2 10.44-.52v4.4l-9.96 3.74-.48.2-.36.15-28.68 10.7v-10.7h-54.36c-2.16 7.12-9.72 11.14-16.68 8.95-5.76-1.77-9.48-6.95-9.48-13.04v-4.4l26.16.45h54.36z" fill="#9d5025"/><path d="M940.47 1462l28.74 10.7.37.18.48.14 9.94 3.8-9.83 3.68-.48.2-.5.15-28.6 10.7v-10.72h-54.5c-2.27 7.06-9.7 10.96-16.64 8.7-6.94-2.2-10.78-9.74-8.62-16.77 2.27-7.07 9.7-10.97 16.64-8.72 4.2 1.36 7.3 4.4 8.63 8.72h54.37z" fill="#f58536"/><use xlink:href="#O" transform="matrix(1,0,0,1,860,1496) translate(13.981481481481488 17.77777777777778)"/><use xlink:href="#P" transform="matrix(1,0,0,1,860,1496) translate(85.46296296296296 17.77777777777778)"/><use xlink:href="#Q" transform="matrix(1,0,0,1,860,1496) translate(20.52469135802469 44.44444444444444)"/><path d="M975.77 1483.07h66.85" stroke="#9a9a9a" stroke-width="1.5" fill="none"/><path fill="#9a9a9a"/><path d="M1057.64 1483.07l-14.27 4.64v-9.26z" stroke="#9a9a9a" stroke-width="1.5" fill="#9a9a9a"/><path d="M760.75 1119.94h33c3.3 0 6-2.68 6-6V656c0-3.3 2.7-6 6-6h16.3" stroke="#9a9a9a" stroke-width="1.5" fill="none"/><path d="M760.77 1120.7H760v-1.5h.77z" fill="#9a9a9a"/><path d="M837.07 650l-14.26 4.64v-9.28z" stroke="#9a9a9a" stroke-width="1.5" fill="#9a9a9a"/><path d="M760.75 1119.94h33c3.3 0 6 2.7 6 6v367.56c0 3.3 2.7 6 6 6h16.3" stroke="#9a9a9a" stroke-width="1.5" fill="none"/><path d="M760.77 1120.7H760v-1.5h.77z" fill="#9a9a9a"/><path d="M837.07 1499.5l-14.26 4.64v-9.28z" stroke="#9a9a9a" stroke-width="1.5" fill="#9a9a9a"/><path d="M1159.25 1145.5h-35.75c-3.3 0-6 2.7-6 6v250.06" stroke="#9a9a9a" stroke-width="1.5" fill="none"/><path d="M1160 1146.25h-.77v-1.5h.77z" fill="#9a9a9a"/><path d="M1117.5 1416.57l-4.64-14.26h9.28z" stroke="#9a9a9a" stroke-width="1.5" fill="#9a9a9a"/><path d="M1097.5 899.25V717.43" stroke="#9a9a9a" stroke-width="1.5" fill="none"/><path d="M1098.25 900h-1.5v-.77h1.5z" fill="#9a9a9a"/><path d="M1097.5 702.42l4.64 14.26h-9.28z" stroke="#9a9a9a" stroke-width="1.5" fill="#9a9a9a"/><path d="M1283.25 1140h342.08c3.3 0 6 2.68 6 6v177.56" stroke="#9a9a9a" stroke-width="1.5" fill="none"/><path d="M1283.27 1140.74h-.77v-1.5h.77z" fill="#9a9a9a"/><path d="M1631.33 1338.57l-4.64-14.26h9.27z" stroke="#9a9a9a" stroke-width="1.5" fill="#9a9a9a"/><path d="M1160.75 959.94H1624c3.3 0 6-2.68 6-6v-96" stroke="#9a9a9a" stroke-width="1.5" fill="none"/><path d="M1160.77 960.7h-.77v-1.5h.77z" fill="#9a9a9a"/><path d="M1630 842.93l4.64 14.26h-9.28z" stroke="#9a9a9a" stroke-width="1.5" fill="#9a9a9a"/><path d="M639.25 1119.94H446c-3.3 0-6-2.68-6-6v-108c0-3.3-2.7-6-6-6h-21.56" stroke="#9a9a9a" stroke-width="1.5" fill="none"/><path d="M640 1120.7h-.77v-1.5h.77z" fill="#9a9a9a"/><path d="M397.43 999.94l14.26-4.63v9.28z" stroke="#9a9a9a" stroke-width="1.5" fill="#9a9a9a"/><path d="M1680 1380h120v120h-120v-120z" stroke="#fff" stroke-opacity="0" stroke-width="2" fill="#d86613"/><path d="M1776.8 1444.8h-8.02v-3.18h8.02v-38.44h-38.44v8.02h-3.18v-8.02c0-1.75 1.44-3.18 3.18-3.18h38.44c1.75 0 3.18 1.43 3.18 3.18v38.44c0 1.75-1.43 3.18-3.18 3.18zM1741.6 1480h-38.44c-1.74 0-3.18-1.43-3.18-3.18v-38.44c0-1.75 1.44-3.18 3.18-3.18h8.02v3.18h-8.02v38.44h38.44v-8.02h3.18v8.02c0 1.75-1.43 3.18-3.18 3.18z" stroke="#fff" stroke-opacity="0" stroke-width="2" fill="#fff"/><path d="M1765.6 1425.6v-3.2h-4.8c-.12-1.7-1.5-3.08-3.2-3.2v-4.8h-3.2v4.8h-4.77v-4.8h-3.23v4.8h-4.8v-4.8h-3.2v4.8h-4.8v-4.8h-3.17v4.8h-4.82v-4.8h-3.2v4.8c-1.7.12-3.08 1.5-3.2 3.2h-4.8v3.2h4.8v4.83h-4.8v3.17h4.8v4.8h-4.8v3.2h4.8v4.8h-4.8v3.23h4.8v4.76h-4.8v3.2h4.8c.12 1.7 1.5 3.08 3.2 3.2v4.8h3.2v-4.8h4.83v4.8h3.17v-4.8h4.8v4.8h3.2v-4.8h4.8v4.8h3.23v-4.8h4.76v4.8h3.2v-4.8c1.7-.12 3.08-1.5 3.2-3.2h4.8v-3.2h-4.8v-4.77h4.8v-3.23h-4.8v-4.8h4.8v-3.2h-4.8v-4.8h4.8v-3.17h-4.8v-4.82zm-8 31.7c0 .16-.14.3-.3.3h-34.6c-.16 0-.3-.14-.3-.3v-34.6c0-.16.14-.3.3-.3h34.6c.16 0 .3.14.3.3z" stroke="#fff" stroke-opacity="0" stroke-width="2" fill="#fff"/><use xlink:href="#R" transform="matrix(1,0,0,1,1650,1509) translate(66.01851851851852 17.77777777777778)"/><path d="M1430 520h120v120h-120V520z" stroke="#fff" stroke-opacity="0" stroke-width="2" fill="#d86613"/><path d="M1526.8 584.8h-8.02v-3.18h8.02v-38.44h-38.44v8.02h-3.18v-8.02c0-1.75 1.44-3.18 3.18-3.18h38.44c1.75 0 3.18 1.43 3.18 3.18v38.44c0 1.75-1.43 3.18-3.18 3.18zM1491.6 620h-38.44c-1.74 0-3.18-1.43-3.18-3.18v-38.44c0-1.75 1.44-3.18 3.18-3.18h8.02v3.18h-8.02v38.44h38.44v-8.02h3.18v8.02c0 1.75-1.43 3.18-3.18 3.18z" stroke="#fff" stroke-opacity="0" stroke-width="2" fill="#fff"/><path d="M1515.6 565.6v-3.2h-4.8c-.12-1.7-1.5-3.08-3.2-3.2v-4.8h-3.2v4.8h-4.77v-4.8h-3.23v4.8h-4.8v-4.8h-3.2v4.8h-4.8v-4.8h-3.17v4.8h-4.82v-4.8h-3.2v4.8c-1.7.12-3.08 1.5-3.2 3.2h-4.8v3.2h4.8v4.83h-4.8v3.17h4.8v4.8h-4.8v3.2h4.8v4.8h-4.8v3.23h4.8v4.76h-4.8v3.2h4.8c.12 1.7 1.5 3.08 3.2 3.2v4.8h3.2v-4.8h4.83v4.8h3.17v-4.8h4.8v4.8h3.2v-4.8h4.8v4.8h3.23v-4.8h4.76v4.8h3.2v-4.8c1.7-.12 3.08-1.5 3.2-3.2h4.8v-3.2h-4.8v-4.77h4.8v-3.23h-4.8v-4.8h4.8v-3.2h-4.8v-4.8h4.8v-3.17h-4.8v-4.82zm-8 31.7c0 .16-.14.3-.3.3h-34.6c-.16 0-.3-.14-.3-.3v-34.6c0-.16.14-.3.3-.3h34.6c.16 0 .3.14.3.3z" stroke="#fff" stroke-opacity="0" stroke-width="2" fill="#fff"/><use xlink:href="#R" transform="matrix(1,0,0,1,1400,649) translate(66.01851851851852 17.77777777777778)"/><path d="M1370 530c0-16.57 13.43-30 30-30h460c16.57 0 30 13.43 30 30v160c0 16.57-13.43 30-30 30h-460c-16.57 0-30-13.43-30-30z" stroke="#474747" stroke-width="3" fill-opacity="0"/><path d="M1370 530c0-16.57 13.43-30 30-30h460c16.57 0 30 13.43 30 30v160c0 16.57-13.43 30-30 30h-460c-16.57 0-30-13.43-30-30z" fill="none"/><path d="M1385.04 504.1l3.17-1.7 4.72-1.56 4.93-.76 2.15-.08h15.33m15.34 0h30.66m15.34 0h30.66m15.34 0h30.66m15.34 0h30.66m15.34 0h30.66m15.34 0h30.66m15.34 0h30.66m15.34 0h30.66m15.34 0h30.66m15.34 0H1860l5 .42 4.82 1.22 4.54 2 .6.42m10.95 10.98l1.7 3.17 1.56 4.72.76 4.93.08 2.15v13.33m0 13.34v26.66m0 13.34v26.66m0 13.34v26.66m0 13.34V690l-.42 5-1.22 4.82-2 4.54-.42.6m-10.98 10.95l-3.17 1.7-4.72 1.56-4.93.76-2.15.08h-15.33m-15.34 0h-30.66m-15.34 0h-30.66m-15.34 0h-30.66m-15.34 0h-30.66m-15.34 0h-30.66m-15.34 0h-30.66m-15.34 0h-30.66m-15.34 0h-30.66m-15.34 0h-30.66m-15.34 0H1400l-5-.42-4.82-1.22-4.54-2-.6-.42m-10.95-10.98l-1.7-3.17-1.56-4.72-.76-4.93-.08-2.15v-13.33m0-13.34v-26.66m0-13.34v-26.66m0-13.34v-26.66m0-13.34V530l.42-5 1.22-4.82 2-4.54.42-.6" stroke="red" stroke-width="3" fill="none"/><use xlink:href="#E" transform="matrix(1,0,0,1,1370,690) translate(127.68518518518516 11.11111111111111)"/><use xlink:href="#F" transform="matrix(1,0,0,1,1370,690) translate(244.35185185185185 11.11111111111111)"/><use xlink:href="#G" transform="matrix(1,0,0,1,1370,690) translate(330.64814814814815 11.11111111111111)"/><path d="M1690 520h120v120h-120V520z" stroke="#fff" stroke-opacity="0" stroke-width="2" fill="#d86613"/><path d="M1786.8 584.8h-8.02v-3.18h8.02v-38.44h-38.44v8.02h-3.18v-8.02c0-1.75 1.44-3.18 3.18-3.18h38.44c1.75 0 3.18 1.43 3.18 3.18v38.44c0 1.75-1.43 3.18-3.18 3.18zM1751.6 620h-38.44c-1.74 0-3.18-1.43-3.18-3.18v-38.44c0-1.75 1.44-3.18 3.18-3.18h8.02v3.18h-8.02v38.44h38.44v-8.02h3.18v8.02c0 1.75-1.43 3.18-3.18 3.18z" stroke="#fff" stroke-opacity="0" stroke-width="2" fill="#fff"/><path d="M1775.6 565.6v-3.2h-4.8c-.12-1.7-1.5-3.08-3.2-3.2v-4.8h-3.2v4.8h-4.77v-4.8h-3.23v4.8h-4.8v-4.8h-3.2v4.8h-4.8v-4.8h-3.17v4.8h-4.82v-4.8h-3.2v4.8c-1.7.12-3.08 1.5-3.2 3.2h-4.8v3.2h4.8v4.83h-4.8v3.17h4.8v4.8h-4.8v3.2h4.8v4.8h-4.8v3.23h4.8v4.76h-4.8v3.2h4.8c.12 1.7 1.5 3.08 3.2 3.2v4.8h3.2v-4.8h4.83v4.8h3.17v-4.8h4.8v4.8h3.2v-4.8h4.8v4.8h3.23v-4.8h4.76v4.8h3.2v-4.8c1.7-.12 3.08-1.5 3.2-3.2h4.8v-3.2h-4.8v-4.77h4.8v-3.23h-4.8v-4.8h4.8v-3.2h-4.8v-4.8h4.8v-3.17h-4.8v-4.82zm-8 31.7c0 .16-.14.3-.3.3h-34.6c-.16 0-.3-.14-.3-.3v-34.6c0-.16.14-.3.3-.3h34.6c.16 0 .3.14.3.3z" stroke="#fff" stroke-opacity="0" stroke-width="2" fill="#fff"/><use xlink:href="#R" transform="matrix(1,0,0,1,1660,649) translate(66.01851851851852 17.77777777777778)"/><path d="M1878.08 551.67c-.32-.37-.56-.74-.8-1.1-1.36-2.37-2.08-4.54-2.56-7.14-2-8.62-7.28-15.25-15.6-19.72-5.84-3.2-11.76-5.32-18.72-4.5-9.28 1.04-17.12 4.2-22.56 11.52-3.12 4.34-5.28 8.3-7.12 13.27-1.68 4.26-1.52 8.9-3.6 13.07-.48.87-.96 1.55-1.52 2.35-1.44 2.05-3.36 3.9-4.4 6.08-2.56 5.4-1.12 8.5 4.56 11.16.64.25 1.2.5 1.84.74 6.64 2.42 22.24 5.46 31.84 2.1 2.4-.67 4.32-1.4 6.48-2.53 7.68-3.72 15.36-7.56 23.04-11.35 3.6-1.67 6.48-3.6 9.2-6.38 2.48-2.6 2.4-5.02-.08-7.57z" fill="#4b612c"/><path d="M1850.96 522.2c4.28 1.4 7.7 3.2 11.18 5.97 2.42 1.75 8.97 7.9 10.46 15.57.15 1.16.3 2.32.5 3.42.22.53.5.93.86 1.34l.78 1.8s1.42 2.1 2.2 3.08c1 1.28 1.36 2.55.3 3.83-2.5 2.92-5.7 4.95-9.62 6.8l.36-3.77-2.57-.7c-.98 2.04-.34 3.55 2.08 4.65-2.28 1.1-4.34 2.1-6.34 3.02-6.2 3.02-12.3 6.1-18.5 9.06-4.77 2.27-9.4 3.2-14.74 3.08-6.2-.23-11.46-1.16-17.3-3.02-2.5-.87-4.55-4.47-3.77-6.74.36-1.1 1.64-1.8 2.85-1.57 4.34.42 8.68.88 13.02 1.35 4.77.52 9.6 1.5 14.38 1.5 5.48 0 10.68-1.5 15.8-3.42-1.56.12-3.13.18-4.62.3-4.34.28-8.6.4-12.88.92-5.34.64-10.33-.4-15.38-1.57-4.13-.8-7.4-2.84-9.75-6.04-.93-1.27-1.5-2.67-.8-4 .58.46 1.22 1.33 1.65 1.28.5-.06 1.35-.82 1.64-1.46.64-1.56 1.07-3.2 1.56-4.82.8-3.08 1.64-5.7 2.78-8.7 2.2-5.12 4.63-10.23 8.4-14.64 1.42-1.75 2.78-3.14 4.63-4.6 2.2-1.8 5.13-2.37 8.05-2.66 3.35-.3 6.76-.12 10.25-.18.14 0 .36.18.57.24z" fill="#759c3e"/><path d="M1872.62 543.75c-.7-1.43-1.4-2.6-2.26-3.94-.8-1-1.64-1.76-2.77-2.46-5.04-3.18-11.93-2.03-15.4 2.53-2.85 3.63-4.15 7.76-4.92 12.06-.22 1.3-.4 2.6-.64 4.25-1.5-2.33-2.18-4.64-2.2-7.34-.3-5.2.53-10.24 4.12-14.57 2.54-3.1 5.56-5.62 10-6.18 1.24-.07 2.3-.04 3.55.1 1.37 1.07 2.98 1.94 4.02 3.2 2.94 3.3 4.83 6.56 6.2 10.6.15.6.24 1.13.3 1.75z" fill="#b7ca9d"/><path d="M1850.94 522.2c-4.92 1.23-7.77 4.55-10.12 8.38-3.36 5.48-5.82 11.27-5.7 17.64.03 3.87.8 7.1 2.5 10.62.2.35.3.74.55 1.32-1.8.07-3.4-.66-4.37-2.05-1.87-2.46-2.68-5.05-2.52-8.06.2-8.23 1.94-16.14 7.87-22.78 1.36-1.47 2.62-2.67 4.23-3.94 1.6-1.3 3.47-1.9 5.6-1.78z" fill="#b7ca9d"/><path d="M1874.73 550.3c0 2.04-1.54 3.12-3.02 4.2-7.5 5.46-16.24 8.34-25.54 9.9-4.12.7-8.3 1.32-12.5 1.78-5.05.55-9.8-1.07-14.6-2.2-1.96-.46-3.87-1.03-5.9-1.57 0-.18 0-.36.06-.55.93-.08 1.73-.08 2.65 0 3.88.6 7.7 1.5 11.57 1.86 3.76.37 7.02.37 10.78 0 7.02-.65 12.93-1.9 19.58-4.16 3.88-1.4 7.02-2.8 10.6-4.7 2.7-1.38 5.22-3.12 5.53-6.32zM1865.42 559.55c1.86-1 3.68-2.1 5.6-3 .9-.26 1.67-.36 2.6-.33l.18.42-5.82 3.58z" fill="#b7ca9d"/><g><use xlink:href="#S" transform="matrix(1,0,0,1,1799.9999999999998,581) translate(26.419753086419753 17.77777777777778)"/><use xlink:href="#T" transform="matrix(1,0,0,1,1799.9999999999998,581) translate(13.487654320987655 44.44444444444444)"/><use xlink:href="#U" transform="matrix(1,0,0,1,1799.9999999999998,581) translate(17.19135802469136 71.11111111111111)"/></g><path d="M1618.08 551.67c-.32-.37-.56-.74-.8-1.1-1.36-2.37-2.08-4.54-2.56-7.14-2-8.62-7.28-15.25-15.6-19.72-5.84-3.2-11.76-5.32-18.72-4.5-9.28 1.04-17.12 4.2-22.56 11.52-3.12 4.34-5.28 8.3-7.12 13.27-1.68 4.26-1.52 8.9-3.6 13.07-.48.87-.96 1.55-1.52 2.35-1.44 2.05-3.36 3.9-4.4 6.08-2.56 5.4-1.12 8.5 4.56 11.16.64.25 1.2.5 1.84.74 6.64 2.42 22.24 5.46 31.84 2.1 2.4-.67 4.32-1.4 6.48-2.53 7.68-3.72 15.36-7.56 23.04-11.35 3.6-1.67 6.48-3.6 9.2-6.38 2.48-2.6 2.4-5.02-.08-7.57z" fill="#4b612c"/><path d="M1590.96 522.2c4.28 1.4 7.7 3.2 11.18 5.97 2.42 1.75 8.97 7.9 10.46 15.57.15 1.16.3 2.32.5 3.42.22.53.5.93.86 1.34l.78 1.8s1.42 2.1 2.2 3.08c1 1.28 1.36 2.55.3 3.83-2.5 2.92-5.7 4.95-9.62 6.8l.36-3.77-2.57-.7c-.98 2.04-.34 3.55 2.08 4.65-2.28 1.1-4.34 2.1-6.34 3.02-6.2 3.02-12.3 6.1-18.5 9.06-4.77 2.27-9.4 3.2-14.74 3.08-6.2-.23-11.46-1.16-17.3-3.02-2.5-.87-4.55-4.47-3.77-6.74.36-1.1 1.64-1.8 2.85-1.57 4.34.42 8.68.88 13.02 1.35 4.77.52 9.6 1.5 14.38 1.5 5.48 0 10.68-1.5 15.8-3.42-1.56.12-3.13.18-4.62.3-4.34.28-8.6.4-12.88.92-5.34.64-10.33-.4-15.38-1.57-4.13-.8-7.4-2.84-9.75-6.04-.93-1.27-1.5-2.67-.8-4 .58.46 1.22 1.33 1.65 1.28.5-.06 1.35-.82 1.64-1.46.64-1.56 1.07-3.2 1.56-4.82.8-3.08 1.64-5.7 2.78-8.7 2.2-5.12 4.63-10.23 8.4-14.64 1.42-1.75 2.78-3.14 4.63-4.6 2.2-1.8 5.13-2.37 8.05-2.66 3.35-.3 6.76-.12 10.25-.18.14 0 .36.18.57.24z" fill="#759c3e"/><path d="M1612.62 543.75c-.7-1.43-1.4-2.6-2.26-3.94-.8-1-1.64-1.76-2.77-2.46-5.04-3.18-11.93-2.03-15.4 2.53-2.85 3.63-4.15 7.76-4.92 12.06-.22 1.3-.4 2.6-.64 4.25-1.5-2.33-2.18-4.64-2.2-7.34-.3-5.2.53-10.24 4.12-14.57 2.54-3.1 5.56-5.62 10-6.18 1.24-.07 2.3-.04 3.55.1 1.37 1.07 2.98 1.94 4.02 3.2 2.94 3.3 4.83 6.56 6.2 10.6.15.6.24 1.13.3 1.75z" fill="#b7ca9d"/><path d="M1590.94 522.2c-4.92 1.23-7.77 4.55-10.12 8.38-3.36 5.48-5.82 11.27-5.7 17.64.03 3.87.8 7.1 2.5 10.62.2.35.3.74.55 1.32-1.8.07-3.4-.66-4.37-2.05-1.87-2.46-2.68-5.05-2.52-8.06.2-8.23 1.94-16.14 7.87-22.78 1.36-1.47 2.62-2.67 4.23-3.94 1.6-1.3 3.47-1.9 5.6-1.78z" fill="#b7ca9d"/><path d="M1614.73 550.3c0 2.04-1.54 3.12-3.02 4.2-7.5 5.46-16.24 8.34-25.54 9.9-4.12.7-8.3 1.32-12.5 1.78-5.05.55-9.8-1.07-14.6-2.2-1.96-.46-3.87-1.03-5.9-1.57 0-.18 0-.36.06-.55.93-.08 1.73-.08 2.65 0 3.88.6 7.7 1.5 11.57 1.86 3.76.37 7.02.37 10.78 0 7.02-.65 12.93-1.9 19.58-4.16 3.88-1.4 7.02-2.8 10.6-4.7 2.7-1.38 5.22-3.12 5.53-6.32zM1605.42 559.55c1.86-1 3.68-2.1 5.6-3 .9-.26 1.67-.36 2.6-.33l.18.42-5.82 3.58z" fill="#b7ca9d"/><g><use xlink:href="#S" transform="matrix(1,0,0,1,1540.0000000000002,581) translate(26.419753086419753 17.77777777777778)"/><use xlink:href="#T" transform="matrix(1,0,0,1,1540.0000000000002,581) translate(13.487654320987655 44.44444444444444)"/><use xlink:href="#U" transform="matrix(1,0,0,1,1540.0000000000002,581) translate(17.19135802469136 71.11111111111111)"/></g><path d="M1858.08 1412.67c-.32-.37-.56-.74-.8-1.1-1.36-2.37-2.08-4.54-2.56-7.14-2-8.62-7.28-15.25-15.6-19.72-5.84-3.2-11.76-5.32-18.72-4.5-9.28 1.04-17.12 4.2-22.56 11.52-3.12 4.34-5.28 8.3-7.12 13.27-1.68 4.26-1.52 8.9-3.6 13.07-.48.87-.96 1.55-1.52 2.35-1.44 2.05-3.36 3.9-4.4 6.08-2.56 5.4-1.12 8.5 4.56 11.16.64.25 1.2.5 1.84.74 6.64 2.42 22.24 5.46 31.84 2.1 2.4-.67 4.32-1.4 6.48-2.53 7.68-3.72 15.36-7.56 23.04-11.35 3.6-1.67 6.48-3.6 9.2-6.38 2.48-2.6 2.4-5.02-.08-7.57z" fill="#4b612c"/><path d="M1830.96 1383.2c4.28 1.4 7.7 3.2 11.18 5.97 2.42 1.75 8.97 7.9 10.46 15.57.15 1.16.3 2.32.5 3.42.22.53.5.93.86 1.34l.78 1.8s1.42 2.1 2.2 3.08c1 1.28 1.36 2.55.3 3.83-2.5 2.92-5.7 4.95-9.62 6.8l.36-3.77-2.57-.7c-.98 2.04-.34 3.55 2.08 4.65-2.28 1.1-4.34 2.1-6.34 3.02-6.2 3.02-12.3 6.1-18.5 9.06-4.77 2.27-9.4 3.2-14.74 3.08-6.2-.23-11.46-1.16-17.3-3.02-2.5-.87-4.55-4.47-3.77-6.74.36-1.1 1.64-1.8 2.85-1.57 4.34.42 8.68.88 13.02 1.35 4.77.52 9.6 1.5 14.38 1.5 5.48 0 10.68-1.5 15.8-3.42-1.56.12-3.13.18-4.62.3-4.34.28-8.6.4-12.88.92-5.34.64-10.33-.4-15.38-1.57-4.13-.8-7.4-2.84-9.75-6.04-.93-1.27-1.5-2.67-.8-4 .58.46 1.22 1.33 1.65 1.28.5-.06 1.35-.82 1.64-1.46.64-1.56 1.07-3.2 1.56-4.82.8-3.08 1.64-5.7 2.78-8.7 2.2-5.12 4.63-10.23 8.4-14.64 1.42-1.75 2.78-3.14 4.63-4.6 2.2-1.8 5.13-2.37 8.05-2.66 3.35-.3 6.76-.12 10.25-.18.14 0 .36.18.57.24z" fill="#759c3e"/><path d="M1852.62 1404.75c-.7-1.43-1.4-2.6-2.26-3.94-.8-1-1.64-1.76-2.77-2.46-5.04-3.18-11.93-2.03-15.4 2.53-2.85 3.63-4.15 7.76-4.92 12.06-.22 1.3-.4 2.6-.64 4.25-1.5-2.33-2.18-4.64-2.2-7.34-.3-5.2.53-10.24 4.12-14.57 2.54-3.1 5.56-5.62 10-6.18 1.24-.07 2.3-.04 3.55.1 1.37 1.07 2.98 1.94 4.02 3.2 2.94 3.3 4.83 6.56 6.2 10.6.15.6.24 1.13.3 1.75z" fill="#b7ca9d"/><path d="M1830.94 1383.2c-4.92 1.23-7.77 4.55-10.12 8.38-3.36 5.48-5.82 11.27-5.7 17.64.03 3.87.8 7.1 2.5 10.62.2.35.3.74.55 1.32-1.8.07-3.4-.66-4.37-2.05-1.87-2.46-2.68-5.05-2.52-8.06.2-8.23 1.94-16.14 7.87-22.78 1.36-1.47 2.62-2.67 4.23-3.94 1.6-1.3 3.47-1.9 5.6-1.78z" fill="#b7ca9d"/><path d="M1854.73 1411.3c0 2.04-1.54 3.12-3.02 4.2-7.5 5.46-16.24 8.34-25.54 9.9-4.12.7-8.3 1.32-12.5 1.78-5.05.55-9.8-1.07-14.6-2.2-1.96-.46-3.87-1.03-5.9-1.57 0-.18 0-.36.06-.55.93-.08 1.73-.08 2.65 0 3.88.6 7.7 1.5 11.57 1.86 3.76.37 7.02.37 10.78 0 7.02-.65 12.93-1.9 19.58-4.16 3.88-1.4 7.02-2.8 10.6-4.7 2.7-1.38 5.22-3.12 5.53-6.32zM1845.42 1420.55c1.86-1 3.68-2.1 5.6-3 .9-.26 1.67-.36 2.6-.33l.18.42-5.82 3.58z" fill="#b7ca9d"/><g><use xlink:href="#S" transform="matrix(1,0,0,1,1780,1442) translate(26.419753086419753 17.77777777777778)"/><use xlink:href="#T" transform="matrix(1,0,0,1,1780,1442) translate(13.487654320987655 44.44444444444444)"/><use xlink:href="#U" transform="matrix(1,0,0,1,1780,1442) translate(17.19135802469136 71.11111111111111)"/></g><path d="M1598.08 1412.67c-.32-.37-.56-.74-.8-1.1-1.36-2.37-2.08-4.54-2.56-7.14-2-8.62-7.28-15.25-15.6-19.72-5.84-3.2-11.76-5.32-18.72-4.5-9.28 1.04-17.12 4.2-22.56 11.52-3.12 4.34-5.28 8.3-7.12 13.27-1.68 4.26-1.52 8.9-3.6 13.07-.48.87-.96 1.55-1.52 2.35-1.44 2.05-3.36 3.9-4.4 6.08-2.56 5.4-1.12 8.5 4.56 11.16.64.25 1.2.5 1.84.74 6.64 2.42 22.24 5.46 31.84 2.1 2.4-.67 4.32-1.4 6.48-2.53 7.68-3.72 15.36-7.56 23.04-11.35 3.6-1.67 6.48-3.6 9.2-6.38 2.48-2.6 2.4-5.02-.08-7.57z" fill="#4b612c"/><path d="M1570.96 1383.2c4.28 1.4 7.7 3.2 11.18 5.97 2.42 1.75 8.97 7.9 10.46 15.57.15 1.16.3 2.32.5 3.42.22.53.5.93.86 1.34l.78 1.8s1.42 2.1 2.2 3.08c1 1.28 1.36 2.55.3 3.83-2.5 2.92-5.7 4.95-9.62 6.8l.36-3.77-2.57-.7c-.98 2.04-.34 3.55 2.08 4.65-2.28 1.1-4.34 2.1-6.34 3.02-6.2 3.02-12.3 6.1-18.5 9.06-4.77 2.27-9.4 3.2-14.74 3.08-6.2-.23-11.46-1.16-17.3-3.02-2.5-.87-4.55-4.47-3.77-6.74.36-1.1 1.64-1.8 2.85-1.57 4.34.42 8.68.88 13.02 1.35 4.77.52 9.6 1.5 14.38 1.5 5.48 0 10.68-1.5 15.8-3.42-1.56.12-3.13.18-4.62.3-4.34.28-8.6.4-12.88.92-5.34.64-10.33-.4-15.38-1.57-4.13-.8-7.4-2.84-9.75-6.04-.93-1.27-1.5-2.67-.8-4 .58.46 1.22 1.33 1.65 1.28.5-.06 1.35-.82 1.64-1.46.64-1.56 1.07-3.2 1.56-4.82.8-3.08 1.64-5.7 2.78-8.7 2.2-5.12 4.63-10.23 8.4-14.64 1.42-1.75 2.78-3.14 4.63-4.6 2.2-1.8 5.13-2.37 8.05-2.66 3.35-.3 6.76-.12 10.25-.18.14 0 .36.18.57.24z" fill="#759c3e"/><path d="M1592.62 1404.75c-.7-1.43-1.4-2.6-2.26-3.94-.8-1-1.64-1.76-2.77-2.46-5.04-3.18-11.93-2.03-15.4 2.53-2.85 3.63-4.15 7.76-4.92 12.06-.22 1.3-.4 2.6-.64 4.25-1.5-2.33-2.18-4.64-2.2-7.34-.3-5.2.53-10.24 4.12-14.57 2.54-3.1 5.56-5.62 10-6.18 1.24-.07 2.3-.04 3.55.1 1.37 1.07 2.98 1.94 4.02 3.2 2.94 3.3 4.83 6.56 6.2 10.6.15.6.24 1.13.3 1.75z" fill="#b7ca9d"/><path d="M1570.94 1383.2c-4.92 1.23-7.77 4.55-10.12 8.38-3.36 5.48-5.82 11.27-5.7 17.64.03 3.87.8 7.1 2.5 10.62.2.35.3.74.55 1.32-1.8.07-3.4-.66-4.37-2.05-1.87-2.46-2.68-5.05-2.52-8.06.2-8.23 1.94-16.14 7.87-22.78 1.36-1.47 2.62-2.67 4.23-3.94 1.6-1.3 3.47-1.9 5.6-1.78z" fill="#b7ca9d"/><path d="M1594.73 1411.3c0 2.04-1.54 3.12-3.02 4.2-7.5 5.46-16.24 8.34-25.54 9.9-4.12.7-8.3 1.32-12.5 1.78-5.05.55-9.8-1.07-14.6-2.2-1.96-.46-3.87-1.03-5.9-1.57 0-.18 0-.36.06-.55.93-.08 1.73-.08 2.65 0 3.88.6 7.7 1.5 11.57 1.86 3.76.37 7.02.37 10.78 0 7.02-.65 12.93-1.9 19.58-4.16 3.88-1.4 7.02-2.8 10.6-4.7 2.7-1.38 5.22-3.12 5.53-6.32zM1585.42 1420.55c1.86-1 3.68-2.1 5.6-3 .9-.26 1.67-.36 2.6-.33l.18.42-5.82 3.58z" fill="#b7ca9d"/><g><use xlink:href="#S" transform="matrix(1,0,0,1,1520,1442) translate(26.419753086419753 17.77777777777778)"/><use xlink:href="#T" transform="matrix(1,0,0,1,1520,1442) translate(13.487654320987655 44.44444444444444)"/><use xlink:href="#U" transform="matrix(1,0,0,1,1520,1442) translate(17.19135802469136 71.11111111111111)"/></g><path d="M337.5 939.25V916c0-3.3 2.7-6 6-6h99.6" stroke="#9a9a9a" stroke-width="1.5" fill="none"/><path d="M338.25 940.03l-.75-.03h-.75v-.77h1.5z" fill="#9a9a9a"/><path d="M458.13 910l-14.27 4.64v-9.28z" stroke="#9a9a9a" stroke-width="1.5" fill="#9a9a9a"/><path d="M575.66 904.33H604c3.3 0 6-2.7 6-6V583.87c0-3.3 2.7-6 6-6h206.06" stroke="#9a9a9a" stroke-width="1.5" fill="none"/><path d="M575.68 905.08h-.8l.07-1.5h.73z" fill="#9a9a9a"/><path d="M837.07 577.87l-14.26 4.64v-9.27z" stroke="#9a9a9a" stroke-width="1.5" fill="#9a9a9a"/><path d="M575.66 904.33H604c3.3 0 6 2.7 6 6v658.96c0 3.3 2.7 6 6 6h206.06" stroke="#9a9a9a" stroke-width="1.5" fill="none"/><path d="M575.68 905.08h-.8l.07-1.5h.73z" fill="#9a9a9a"/><path d="M837.07 1575.3l-14.26 4.63v-9.27z" stroke="#9a9a9a" stroke-width="1.5" fill="#9a9a9a"/><path d="M1740 1379.25V1226c0-3.3 2.7-6 6-6h548c3.3 0 6-2.7 6-6v-198c0-3.3 2.7-6 6-6h46.37" stroke="#9a9a9a" stroke-width="1.5" fill="none"/><path d="M1740.75 1380h-1.5v-.77h1.5z" fill="#9a9a9a"/><path d="M2367.4 1010l-14.28 4.64v-9.28z" stroke="#9a9a9a" stroke-width="1.5" fill="#9a9a9a"/><path d="M1480 1379.25V1226c0-3.3 2.7-6 6-6h808c3.3 0 6-2.7 6-6v-198c0-3.3 2.7-6 6-6h46.37" stroke="#9a9a9a" stroke-width="1.5" fill="none"/><path d="M1480.75 1380h-1.5v-.77h1.5z" fill="#9a9a9a"/><path d="M2367.4 1010l-14.28 4.64v-9.28z" stroke="#9a9a9a" stroke-width="1.5" fill="#9a9a9a"/><path d="M1490 640.75V754c0 3.3 2.7 6 6 6h916c3.3 0 6 2.7 6 6v156.56" stroke="#9a9a9a" stroke-width="1.5" fill="none"/><path d="M1490.75 640.77h-1.5V640h1.5z" fill="#9a9a9a"/><path d="M2418 937.57l-4.64-14.26h9.28z" stroke="#9a9a9a" stroke-width="1.5" fill="#9a9a9a"/><path d="M1750 640.75V754c0 3.3 2.7 6 6 6h656c3.3 0 6 2.7 6 6v156.56" stroke="#9a9a9a" stroke-width="1.5" fill="none"/><path d="M1750.75 640.77h-1.5V640h1.5z" fill="#9a9a9a"/><path d="M2418 937.57l-4.64-14.26h9.28z" stroke="#9a9a9a" stroke-width="1.5" fill="#9a9a9a"/><defs><path fill="#333" d="M205 0l-28-72H64L36 0H1l101-248h38L239 0h-34zm-38-99l-47-123c-12 45-31 82-46 123h93" id="V"/><path fill="#333" d="M266 0h-40l-56-210L115 0H75L2-248h35L96-30l15-64 43-154h32l59 218 59-218h35" id="W"/><path fill="#333" d="M185-189c-5-48-123-54-124 2 14 75 158 14 163 119 3 78-121 87-175 55-17-10-28-26-33-46l33-7c5 56 141 63 141-1 0-78-155-14-162-118-5-82 145-84 179-34 5 7 8 16 11 25" id="X"/><g id="a"><use transform="matrix(0.06172839506172839,0,0,0.06172839506172839,0,0)" xlink:href="#V"/><use transform="matrix(0.06172839506172839,0,0,0.06172839506172839,14.012345679012345,0)" xlink:href="#W"/><use transform="matrix(0.06172839506172839,0,0,0.06172839506172839,34.938271604938265,0)" xlink:href="#X"/></g><path fill="#333" d="M96-169c-40 0-48 33-48 73s9 75 48 75c24 0 41-14 43-38l32 2c-6 37-31 61-74 61-59 0-76-41-82-99-10-93 101-131 147-64 4 7 5 14 7 22l-32 3c-4-21-16-35-41-35" id="Y"/><path fill="#333" d="M24 0v-261h32V0H24" id="Z"/><path fill="#333" d="M100-194c62-1 85 37 85 99 1 63-27 99-86 99S16-35 15-95c0-66 28-99 85-99zM99-20c44 1 53-31 53-75 0-43-8-75-51-75s-53 32-53 75 10 74 51 75" id="aa"/><path fill="#333" d="M84 4C-5 8 30-112 23-190h32v120c0 31 7 50 39 49 72-2 45-101 50-169h31l1 190h-30c-1-10 1-25-2-33-11 22-28 36-60 37" id="ab"/><path fill="#333" d="M85-194c31 0 48 13 60 33l-1-100h32l1 261h-30c-2-10 0-23-3-31C134-8 116 4 85 4 32 4 16-35 15-94c0-66 23-100 70-100zm9 24c-40 0-46 34-46 75 0 40 6 74 45 74 42 0 51-32 51-76 0-42-9-74-50-73" id="ac"/><g id="b"><use transform="matrix(0.06172839506172839,0,0,0.06172839506172839,0,0)" xlink:href="#Y"/><use transform="matrix(0.06172839506172839,0,0,0.06172839506172839,11.11111111111111,0)" xlink:href="#Z"/><use transform="matrix(0.06172839506172839,0,0,0.06172839506172839,15.987654320987653,0)" xlink:href="#aa"/><use transform="matrix(0.06172839506172839,0,0,0.06172839506172839,28.333333333333332,0)" xlink:href="#ab"/><use transform="matrix(0.06172839506172839,0,0,0.06172839506172839,40.67901234567901,0)" xlink:href="#ac"/></g><path fill="#333" d="M232-93c-1 65-40 97-104 97C67 4 28-28 28-90v-158h33c8 89-33 224 67 224 102 0 64-133 71-224h33v155" id="ad"/><path fill="#333" d="M135-143c-3-34-86-38-87 0 15 53 115 12 119 90S17 21 10-45l28-5c4 36 97 45 98 0-10-56-113-15-118-90-4-57 82-63 122-42 12 7 21 19 24 35" id="ae"/><path fill="#333" d="M100-194c63 0 86 42 84 106H49c0 40 14 67 53 68 26 1 43-12 49-29l28 8c-11 28-37 45-77 45C44 4 14-33 15-96c1-61 26-98 85-98zm52 81c6-60-76-77-97-28-3 7-6 17-6 28h103" id="af"/><path fill="#333" d="M114-163C36-179 61-72 57 0H25l-1-190h30c1 12-1 29 2 39 6-27 23-49 58-41v29" id="ag"/><g id="c"><use transform="matrix(0.06172839506172839,0,0,0.06172839506172839,0,0)" xlink:href="#ad"/><use transform="matrix(0.06172839506172839,0,0,0.06172839506172839,15.987654320987653,0)" xlink:href="#ae"/><use transform="matrix(0.06172839506172839,0,0,0.06172839506172839,27.098765432098766,0)" xlink:href="#af"/><use transform="matrix(0.06172839506172839,0,0,0.06172839506172839,39.44444444444444,0)" xlink:href="#ag"/><use transform="matrix(0.06172839506172839,0,0,0.06172839506172839,46.79012345679012,0)" xlink:href="#ae"/></g><path fill="#333" d="M108 0H70L1-190h34L89-25l56-165h34" id="ah"/><path fill="#333" d="M141-36C126-15 110 5 73 4 37 3 15-17 15-53c-1-64 63-63 125-63 3-35-9-54-41-54-24 1-41 7-42 31l-33-3c5-37 33-52 76-52 45 0 72 20 72 64v82c-1 20 7 32 28 27v20c-31 9-61-2-59-35zM48-53c0 20 12 33 32 33 41-3 63-29 60-74-43 2-92-5-92 41" id="ai"/><path fill="#333" d="M24-231v-30h32v30H24zM24 0v-190h32V0H24" id="aj"/><path fill="#333" d="M115-194c53 0 69 39 70 98 0 66-23 100-70 100C84 3 66-7 56-30L54 0H23l1-261h32v101c10-23 28-34 59-34zm-8 174c40 0 45-34 45-75 0-40-5-75-45-74-42 0-51 32-51 76 0 43 10 73 51 73" id="ak"/><path fill="#333" d="M59-47c-2 24 18 29 38 22v24C64 9 27 4 27-40v-127H5v-23h24l9-43h21v43h35v23H59v120" id="al"/><path fill="#333" d="M179-190L93 31C79 59 56 82 12 73V49c39 6 53-20 64-50L1-190h34L92-34l54-156h33" id="am"/><g id="d"><use transform="matrix(0.06172839506172839,0,0,0.06172839506172839,0,0)" xlink:href="#V"/><use transform="matrix(0.06172839506172839,0,0,0.06172839506172839,14.382716049382715,0)" xlink:href="#ah"/><use transform="matrix(0.06172839506172839,0,0,0.06172839506172839,25.493827160493826,0)" xlink:href="#ai"/><use transform="matrix(0.06172839506172839,0,0,0.06172839506172839,37.839506172839506,0)" xlink:href="#aj"/><use transform="matrix(0.06172839506172839,0,0,0.06172839506172839,42.71604938271605,0)" xlink:href="#Z"/><use transform="matrix(0.06172839506172839,0,0,0.06172839506172839,47.592592592592595,0)" xlink:href="#ai"/><use transform="matrix(0.06172839506172839,0,0,0.06172839506172839,59.93827160493827,0)" xlink:href="#ak"/><use transform="matrix(0.06172839506172839,0,0,0.06172839506172839,72.28395061728395,0)" xlink:href="#aj"/><use transform="matrix(0.06172839506172839,0,0,0.06172839506172839,77.1604938271605,0)" xlink:href="#Z"/><use transform="matrix(0.06172839506172839,0,0,0.06172839506172839,82.03703703703704,0)" xlink:href="#aj"/><use transform="matrix(0.06172839506172839,0,0,0.06172839506172839,86.91358024691358,0)" xlink:href="#al"/><use transform="matrix(0.06172839506172839,0,0,0.06172839506172839,93.08641975308642,0)" xlink:href="#am"/></g><path fill="#333" d="M209 0H11v-25l151-195H24v-28h176v25L50-27h159V0" id="an"/><path fill="#333" d="M117-194c89-4 53 116 60 194h-32v-121c0-31-8-49-39-48C34-167 62-67 57 0H25l-1-190h30c1 10-1 24 2 32 11-22 29-35 61-36" id="ao"/><g id="e"><use transform="matrix(0.06172839506172839,0,0,0.06172839506172839,0,0)" xlink:href="#an"/><use transform="matrix(0.06172839506172839,0,0,0.06172839506172839,13.518518518518517,0)" xlink:href="#aa"/><use transform="matrix(0.06172839506172839,0,0,0.06172839506172839,25.864197530864196,0)" xlink:href="#ao"/><use transform="matrix(0.06172839506172839,0,0,0.06172839506172839,38.20987654320987,0)" xlink:href="#af"/></g><path fill="#333" d="M27 0v-27h64v-190l-56 39v-29l58-41h29v221h61V0H27" id="ap"/><use transform="matrix(0.06172839506172839,0,0,0.06172839506172839,0,0)" xlink:href="#ap" id="f"/><path fill="#333" d="M101-251c82-7 93 87 43 132L82-64C71-53 59-42 53-27h129V0H18c2-99 128-94 128-182 0-28-16-43-45-43s-46 15-49 41l-32-3c6-41 34-60 81-64" id="aq"/><use transform="matrix(0.06172839506172839,0,0,0.06172839506172839,0,0)" xlink:href="#aq" id="g"/><path fill="#333" d="M137 0h-34L2-248h35l83 218 83-218h36" id="ar"/><g id="h"><use transform="matrix(0.06172839506172839,0,0,0.06172839506172839,0,0)" xlink:href="#ar"/><use transform="matrix(0.06172839506172839,0,0,0.06172839506172839,14.382716049382715,0)" xlink:href="#aj"/><use transform="matrix(0.06172839506172839,0,0,0.06172839506172839,19.25925925925926,0)" xlink:href="#ag"/><use transform="matrix(0.06172839506172839,0,0,0.06172839506172839,26.604938271604937,0)" xlink:href="#al"/><use transform="matrix(0.06172839506172839,0,0,0.06172839506172839,32.77777777777778,0)" xlink:href="#ab"/><use transform="matrix(0.06172839506172839,0,0,0.06172839506172839,45.123456790123456,0)" xlink:href="#ai"/><use transform="matrix(0.06172839506172839,0,0,0.06172839506172839,57.46913580246913,0)" xlink:href="#Z"/></g><path fill="#333" d="M30-248c87 1 191-15 191 75 0 78-77 80-158 76V0H30v-248zm33 125c57 0 124 11 124-50 0-59-68-47-124-48v98" id="as"/><g id="i"><use transform="matrix(0.06172839506172839,0,0,0.06172839506172839,0,0)" xlink:href="#as"/><use transform="matrix(0.06172839506172839,0,0,0.06172839506172839,14.814814814814813,0)" xlink:href="#ag"/><use transform="matrix(0.06172839506172839,0,0,0.06172839506172839,22.160493827160494,0)" xlink:href="#aj"/><use transform="matrix(0.06172839506172839,0,0,0.06172839506172839,27.037037037037038,0)" xlink:href="#ah"/><use transform="matrix(0.06172839506172839,0,0,0.06172839506172839,38.14814814814815,0)" xlink:href="#ai"/><use transform="matrix(0.06172839506172839,0,0,0.06172839506172839,50.49382716049383,0)" xlink:href="#al"/><use transform="matrix(0.06172839506172839,0,0,0.06172839506172839,56.66666666666667,0)" xlink:href="#af"/></g><path fill="#333" d="M212-179c-10-28-35-45-73-45-59 0-87 40-87 99 0 60 29 101 89 101 43 0 62-24 78-52l27 14C228-24 195 4 139 4 59 4 22-46 18-125c-6-104 99-153 187-111 19 9 31 26 39 46" id="at"/><g id="j"><use transform="matrix(0.06172839506172839,0,0,0.06172839506172839,0,0)" xlink:href="#at"/><use transform="matrix(0.06172839506172839,0,0,0.06172839506172839,15.987654320987653,0)" xlink:href="#Z"/><use transform="matrix(0.06172839506172839,0,0,0.06172839506172839,20.864197530864196,0)" xlink:href="#aa"/><use transform="matrix(0.06172839506172839,0,0,0.06172839506172839,33.20987654320987,0)" xlink:href="#ab"/><use transform="matrix(0.06172839506172839,0,0,0.06172839506172839,45.55555555555555,0)" xlink:href="#ac"/></g><path fill="#333" d="M33 0v-248h34V0H33" id="au"/><path fill="#333" d="M30-248c118-7 216 8 213 122C240-48 200 0 122 0H30v-248zM63-27c89 8 146-16 146-99s-60-101-146-95v194" id="av"/><path fill="#333" d="M233-177c-1 41-23 64-60 70L243 0h-38l-65-103H63V0H30v-248c88 3 205-21 203 71zM63-129c60-2 137 13 137-47 0-61-80-42-137-45v92" id="aw"/><path fill="#333" d="M33-154v-36h34v36H33zM33 0v-36h34V0H33" id="ax"/><g id="k"><use transform="matrix(0.06172839506172839,0,0,0.06172839506172839,0,0)" xlink:href="#at"/><use transform="matrix(0.06172839506172839,0,0,0.06172839506172839,15.987654320987653,0)" xlink:href="#au"/><use transform="matrix(0.06172839506172839,0,0,0.06172839506172839,22.160493827160494,0)" xlink:href="#av"/><use transform="matrix(0.06172839506172839,0,0,0.06172839506172839,38.148148148148145,0)" xlink:href="#aw"/><use transform="matrix(0.06172839506172839,0,0,0.06172839506172839,54.1358024691358,0)" xlink:href="#ax"/></g><path fill="#333" d="M101-251c68 0 85 55 85 127S166 4 100 4C33 4 14-52 14-124c0-73 17-127 87-127zm-1 229c47 0 54-49 54-102s-4-102-53-102c-51 0-55 48-55 102 0 53 5 102 54 102" id="ay"/><path fill="#333" d="M33 0v-38h34V0H33" id="az"/><path fill="#333" d="M0 4l72-265h28L28 4H0" id="aA"/><path fill="#333" d="M110-160c48 1 74 30 74 79 0 53-28 85-80 85-65 0-83-55-86-122-5-90 50-162 133-122 14 7 22 21 27 39l-31 6c-5-40-67-38-82-6-9 19-15 44-15 74 11-20 30-34 60-33zm-7 138c34 0 49-23 49-58s-16-56-50-56c-29 0-50 16-49 49 1 36 15 65 50 65" id="aB"/><g id="l"><use transform="matrix(0.06172839506172839,0,0,0.06172839506172839,0,0)" xlink:href="#ap"/><use transform="matrix(0.06172839506172839,0,0,0.06172839506172839,12.345679012345679,0)" xlink:href="#ay"/><use transform="matrix(0.06172839506172839,0,0,0.06172839506172839,24.691358024691358,0)" xlink:href="#az"/><use transform="matrix(0.06172839506172839,0,0,0.06172839506172839,30.864197530864196,0)" xlink:href="#ay"/><use transform="matrix(0.06172839506172839,0,0,0.06172839506172839,43.20987654320987,0)" xlink:href="#az"/><use transform="matrix(0.06172839506172839,0,0,0.06172839506172839,49.382716049382715,0)" xlink:href="#ay"/><use transform="matrix(0.06172839506172839,0,0,0.06172839506172839,61.72839506172839,0)" xlink:href="#az"/><use transform="matrix(0.06172839506172839,0,0,0.06172839506172839,67.90123456790123,0)" xlink:href="#ay"/><use transform="matrix(0.06172839506172839,0,0,0.06172839506172839,80.24691358024691,0)" xlink:href="#aA"/><use transform="matrix(0.06172839506172839,0,0,0.06172839506172839,86.41975308641975,0)" xlink:href="#ap"/><use transform="matrix(0.06172839506172839,0,0,0.06172839506172839,98.76543209876543,0)" xlink:href="#aB"/></g><g id="m"><use transform="matrix(0.06172839506172839,0,0,0.06172839506172839,0,0)" xlink:href="#as"/><use transform="matrix(0.06172839506172839,0,0,0.06172839506172839,14.814814814814813,0)" xlink:href="#ab"/><use transform="matrix(0.06172839506172839,0,0,0.06172839506172839,27.160493827160494,0)" xlink:href="#ak"/><use transform="matrix(0.06172839506172839,0,0,0.06172839506172839,39.50617283950617,0)" xlink:href="#Z"/><use transform="matrix(0.06172839506172839,0,0,0.06172839506172839,44.382716049382715,0)" xlink:href="#aj"/><use transform="matrix(0.06172839506172839,0,0,0.06172839506172839,49.25925925925926,0)" xlink:href="#Y"/></g><g id="n"><use transform="matrix(0.06172839506172839,0,0,0.06172839506172839,0,0)" xlink:href="#X"/><use transform="matrix(0.06172839506172839,0,0,0.06172839506172839,14.814814814814813,0)" xlink:href="#ab"/><use transform="matrix(0.06172839506172839,0,0,0.06172839506172839,27.160493827160494,0)" xlink:href="#ak"/><use transform="matrix(0.06172839506172839,0,0,0.06172839506172839,39.50617283950617,0)" xlink:href="#ao"/><use transform="matrix(0.06172839506172839,0,0,0.06172839506172839,51.85185185185185,0)" xlink:href="#af"/><use transform="matrix(0.06172839506172839,0,0,0.06172839506172839,64.19753086419753,0)" xlink:href="#al"/></g><use transform="matrix(0.06172839506172839,0,0,0.06172839506172839,0,0)" xlink:href="#ap" id="o"/><path fill="#333" d="M155-56V0h-30v-56H8v-25l114-167h33v167h35v25h-35zm-30-156c-27 46-58 90-88 131h88v-131" id="aC"/><g id="p"><use transform="matrix(0.06172839506172839,0,0,0.06172839506172839,0,0)" xlink:href="#at"/><use transform="matrix(0.06172839506172839,0,0,0.06172839506172839,15.987654320987653,0)" xlink:href="#au"/><use transform="matrix(0.06172839506172839,0,0,0.06172839506172839,22.160493827160494,0)" xlink:href="#av"/><use transform="matrix(0.06172839506172839,0,0,0.06172839506172839,38.148148148148145,0)" xlink:href="#aw"/><use transform="matrix(0.06172839506172839,0,0,0.06172839506172839,54.1358024691358,0)" xlink:href="#ax"/><use transform="matrix(0.06172839506172839,0,0,0.06172839506172839,60.30864197530864,0)" xlink:href="#ap"/><use transform="matrix(0.06172839506172839,0,0,0.06172839506172839,72.65432098765432,0)" xlink:href="#ay"/><use transform="matrix(0.06172839506172839,0,0,0.06172839506172839,85,0)" xlink:href="#az"/><use transform="matrix(0.06172839506172839,0,0,0.06172839506172839,91.17283950617283,0)" xlink:href="#ay"/><use transform="matrix(0.06172839506172839,0,0,0.06172839506172839,103.51851851851852,0)" xlink:href="#az"/><use transform="matrix(0.06172839506172839,0,0,0.06172839506172839,109.69135802469135,0)" xlink:href="#ay"/><use transform="matrix(0.06172839506172839,0,0,0.06172839506172839,122.03703703703704,0)" xlink:href="#az"/><use transform="matrix(0.06172839506172839,0,0,0.06172839506172839,128.20987654320987,0)" xlink:href="#ay"/><use transform="matrix(0.06172839506172839,0,0,0.06172839506172839,140.55555555555554,0)" xlink:href="#aA"/><use transform="matrix(0.06172839506172839,0,0,0.06172839506172839,146.72839506172838,0)" xlink:href="#aq"/><use transform="matrix(0.06172839506172839,0,0,0.06172839506172839,159.07407407407405,0)" xlink:href="#aC"/></g><use transform="matrix(0.06172839506172839,0,0,0.06172839506172839,0,0)" xlink:href="#aq" id="q"/><g id="r"><use transform="matrix(0.06172839506172839,0,0,0.06172839506172839,0,0)" xlink:href="#ap"/><use transform="matrix(0.06172839506172839,0,0,0.06172839506172839,12.345679012345679,0)" xlink:href="#ay"/><use transform="matrix(0.06172839506172839,0,0,0.06172839506172839,24.691358024691358,0)" xlink:href="#az"/><use transform="matrix(0.06172839506172839,0,0,0.06172839506172839,30.864197530864196,0)" xlink:href="#ay"/><use transform="matrix(0.06172839506172839,0,0,0.06172839506172839,43.20987654320987,0)" xlink:href="#az"/><use transform="matrix(0.06172839506172839,0,0,0.06172839506172839,49.382716049382715,0)" xlink:href="#ap"/><use transform="matrix(0.06172839506172839,0,0,0.06172839506172839,61.72839506172839,0)" xlink:href="#az"/><use transform="matrix(0.06172839506172839,0,0,0.06172839506172839,67.90123456790123,0)" xlink:href="#ay"/><use transform="matrix(0.06172839506172839,0,0,0.06172839506172839,80.24691358024691,0)" xlink:href="#aA"/><use transform="matrix(0.06172839506172839,0,0,0.06172839506172839,86.41975308641975,0)" xlink:href="#aq"/><use transform="matrix(0.06172839506172839,0,0,0.06172839506172839,98.76543209876543,0)" xlink:href="#aC"/></g><g id="s"><use transform="matrix(0.06172839506172839,0,0,0.06172839506172839,0,0)" xlink:href="#as"/><use transform="matrix(0.06172839506172839,0,0,0.06172839506172839,14.814814814814813,0)" xlink:href="#ag"/><use transform="matrix(0.06172839506172839,0,0,0.06172839506172839,22.160493827160494,0)" xlink:href="#aj"/><use transform="matrix(0.06172839506172839,0,0,0.06172839506172839,27.037037037037038,0)" xlink:href="#ah"/><use transform="matrix(0.06172839506172839,0,0,0.06172839506172839,38.14814814814815,0)" xlink:href="#ai"/><use transform="matrix(0.06172839506172839,0,0,0.06172839506172839,50.49382716049383,0)" xlink:href="#al"/><use transform="matrix(0.06172839506172839,0,0,0.06172839506172839,56.66666666666667,0)" xlink:href="#af"/></g><g id="t"><use transform="matrix(0.06172839506172839,0,0,0.06172839506172839,0,0)" xlink:href="#ap"/><use transform="matrix(0.06172839506172839,0,0,0.06172839506172839,12.345679012345679,0)" xlink:href="#ay"/><use transform="matrix(0.06172839506172839,0,0,0.06172839506172839,24.691358024691358,0)" xlink:href="#az"/><use transform="matrix(0.06172839506172839,0,0,0.06172839506172839,30.864197530864196,0)" xlink:href="#ay"/><use transform="matrix(0.06172839506172839,0,0,0.06172839506172839,43.20987654320987,0)" xlink:href="#az"/><use transform="matrix(0.06172839506172839,0,0,0.06172839506172839,49.382716049382715,0)" xlink:href="#aq"/><use transform="matrix(0.06172839506172839,0,0,0.06172839506172839,61.72839506172839,0)" xlink:href="#az"/><use transform="matrix(0.06172839506172839,0,0,0.06172839506172839,67.90123456790123,0)" xlink:href="#ay"/><use transform="matrix(0.06172839506172839,0,0,0.06172839506172839,80.24691358024691,0)" xlink:href="#aA"/><use transform="matrix(0.06172839506172839,0,0,0.06172839506172839,86.41975308641975,0)" xlink:href="#aq"/><use transform="matrix(0.06172839506172839,0,0,0.06172839506172839,98.76543209876543,0)" xlink:href="#aC"/></g><path fill="#333" d="M126-127c33 6 58 20 58 59 0 88-139 92-164 29-3-8-5-16-6-25l32-3c6 27 21 44 54 44 32 0 52-15 52-46 0-38-36-46-79-43v-28c39 1 72-4 72-42 0-27-17-43-46-43-28 0-47 15-49 41l-32-3c6-42 35-63 81-64 48-1 79 21 79 65 0 36-21 52-52 59" id="aD"/><g id="u"><use transform="matrix(0.06172839506172839,0,0,0.06172839506172839,0,0)" xlink:href="#ap"/><use transform="matrix(0.06172839506172839,0,0,0.06172839506172839,12.345679012345679,0)" xlink:href="#ay"/><use transform="matrix(0.06172839506172839,0,0,0.06172839506172839,24.691358024691358,0)" xlink:href="#az"/><use transform="matrix(0.06172839506172839,0,0,0.06172839506172839,30.864197530864196,0)" xlink:href="#ay"/><use transform="matrix(0.06172839506172839,0,0,0.06172839506172839,43.20987654320987,0)" xlink:href="#az"/><use transform="matrix(0.06172839506172839,0,0,0.06172839506172839,49.382716049382715,0)" xlink:href="#aD"/><use transform="matrix(0.06172839506172839,0,0,0.06172839506172839,61.72839506172839,0)" xlink:href="#az"/><use transform="matrix(0.06172839506172839,0,0,0.06172839506172839,67.90123456790123,0)" xlink:href="#ay"/><use transform="matrix(0.06172839506172839,0,0,0.06172839506172839,80.24691358024691,0)" xlink:href="#aA"/><use transform="matrix(0.06172839506172839,0,0,0.06172839506172839,86.41975308641975,0)" xlink:href="#aq"/><use transform="matrix(0.06172839506172839,0,0,0.06172839506172839,98.76543209876543,0)" xlink:href="#aC"/></g><g id="v"><use transform="matrix(0.06172839506172839,0,0,0.06172839506172839,0,0)" xlink:href="#au"/><use transform="matrix(0.06172839506172839,0,0,0.06172839506172839,6.172839506172839,0)" xlink:href="#ao"/><use transform="matrix(0.06172839506172839,0,0,0.06172839506172839,18.51851851851852,0)" xlink:href="#al"/><use transform="matrix(0.06172839506172839,0,0,0.06172839506172839,24.691358024691358,0)" xlink:href="#af"/><use transform="matrix(0.06172839506172839,0,0,0.06172839506172839,37.03703703703704,0)" xlink:href="#ag"/><use transform="matrix(0.06172839506172839,0,0,0.06172839506172839,44.382716049382715,0)" xlink:href="#ao"/><use transform="matrix(0.06172839506172839,0,0,0.06172839506172839,56.72839506172839,0)" xlink:href="#af"/><use transform="matrix(0.06172839506172839,0,0,0.06172839506172839,69.07407407407408,0)" xlink:href="#al"/></g><path fill="#333" d="M177-190C167-65 218 103 67 71c-23-6-38-20-44-43l32-5c15 47 100 32 89-28v-30C133-14 115 1 83 1 29 1 15-40 15-95c0-56 16-97 71-98 29-1 48 16 59 35 1-10 0-23 2-32h30zM94-22c36 0 50-32 50-73 0-42-14-75-50-75-39 0-46 34-46 75s6 73 46 73" id="aE"/><path fill="#333" d="M206 0h-36l-40-164L89 0H53L-1-190h32L70-26l43-164h34l41 164 42-164h31" id="aF"/><g id="w"><use transform="matrix(0.06172839506172839,0,0,0.06172839506172839,0,0)" xlink:href="#aE"/><use transform="matrix(0.06172839506172839,0,0,0.06172839506172839,12.345679012345679,0)" xlink:href="#ai"/><use transform="matrix(0.06172839506172839,0,0,0.06172839506172839,24.691358024691358,0)" xlink:href="#al"/><use transform="matrix(0.06172839506172839,0,0,0.06172839506172839,30.864197530864196,0)" xlink:href="#af"/><use transform="matrix(0.06172839506172839,0,0,0.06172839506172839,43.20987654320987,0)" xlink:href="#aF"/><use transform="matrix(0.06172839506172839,0,0,0.06172839506172839,59.197530864197525,0)" xlink:href="#ai"/><use transform="matrix(0.06172839506172839,0,0,0.06172839506172839,71.5432098765432,0)" xlink:href="#am"/></g><path fill="#333" d="M190 0L58-211 59 0H30v-248h39L202-35l-2-213h31V0h-41" id="aG"/><path fill="#333" d="M127-220V0H93v-220H8v-28h204v28h-85" id="aH"/><g id="x"><use transform="matrix(0.06172839506172839,0,0,0.06172839506172839,0,0)" xlink:href="#aG"/><use transform="matrix(0.06172839506172839,0,0,0.06172839506172839,15.987654320987653,0)" xlink:href="#V"/><use transform="matrix(0.06172839506172839,0,0,0.06172839506172839,29.1358024691358,0)" xlink:href="#aH"/></g><g id="y"><use transform="matrix(0.06172839506172839,0,0,0.06172839506172839,0,0)" xlink:href="#aE"/><use transform="matrix(0.06172839506172839,0,0,0.06172839506172839,12.345679012345679,0)" xlink:href="#ai"/><use transform="matrix(0.06172839506172839,0,0,0.06172839506172839,24.691358024691358,0)" xlink:href="#al"/><use transform="matrix(0.06172839506172839,0,0,0.06172839506172839,30.864197530864196,0)" xlink:href="#af"/><use transform="matrix(0.06172839506172839,0,0,0.06172839506172839,43.20987654320987,0)" xlink:href="#aF"/><use transform="matrix(0.06172839506172839,0,0,0.06172839506172839,59.197530864197525,0)" xlink:href="#ai"/><use transform="matrix(0.06172839506172839,0,0,0.06172839506172839,71.5432098765432,0)" xlink:href="#am"/></g><path fill="#d86613" d="M205 0l-28-72H64L36 0H1l101-248h38L239 0h-34zm-38-99l-47-123c-12 45-31 82-46 123h93" id="aI"/><path fill="#d86613" d="M84 4C-5 8 30-112 23-190h32v120c0 31 7 50 39 49 72-2 45-101 50-169h31l1 190h-30c-1-10 1-25-2-33-11 22-28 36-60 37" id="aJ"/><path fill="#d86613" d="M59-47c-2 24 18 29 38 22v24C64 9 27 4 27-40v-127H5v-23h24l9-43h21v43h35v23H59v120" id="aK"/><path fill="#d86613" d="M100-194c62-1 85 37 85 99 1 63-27 99-86 99S16-35 15-95c0-66 28-99 85-99zM99-20c44 1 53-31 53-75 0-43-8-75-51-75s-53 32-53 75 10 74 51 75" id="aL"/><g id="z"><use transform="matrix(0.05,0,0,0.05,0,0)" xlink:href="#aI"/><use transform="matrix(0.05,0,0,0.05,12,0)" xlink:href="#aJ"/><use transform="matrix(0.05,0,0,0.05,22,0)" xlink:href="#aK"/><use transform="matrix(0.05,0,0,0.05,27,0)" xlink:href="#aL"/></g><path fill="#d86613" d="M185-189c-5-48-123-54-124 2 14 75 158 14 163 119 3 78-121 87-175 55-17-10-28-26-33-46l33-7c5 56 141 63 141-1 0-78-155-14-162-118-5-82 145-84 179-34 5 7 8 16 11 25" id="aM"/><path fill="#d86613" d="M96-169c-40 0-48 33-48 73s9 75 48 75c24 0 41-14 43-38l32 2c-6 37-31 61-74 61-59 0-76-41-82-99-10-93 101-131 147-64 4 7 5 14 7 22l-32 3c-4-21-16-35-41-35" id="aN"/><path fill="#d86613" d="M141-36C126-15 110 5 73 4 37 3 15-17 15-53c-1-64 63-63 125-63 3-35-9-54-41-54-24 1-41 7-42 31l-33-3c5-37 33-52 76-52 45 0 72 20 72 64v82c-1 20 7 32 28 27v20c-31 9-61-2-59-35zM48-53c0 20 12 33 32 33 41-3 63-29 60-74-43 2-92-5-92 41" id="aO"/><path fill="#d86613" d="M24 0v-261h32V0H24" id="aP"/><path fill="#d86613" d="M24-231v-30h32v30H24zM24 0v-190h32V0H24" id="aQ"/><path fill="#d86613" d="M117-194c89-4 53 116 60 194h-32v-121c0-31-8-49-39-48C34-167 62-67 57 0H25l-1-190h30c1 10-1 24 2 32 11-22 29-35 61-36" id="aR"/><path fill="#d86613" d="M177-190C167-65 218 103 67 71c-23-6-38-20-44-43l32-5c15 47 100 32 89-28v-30C133-14 115 1 83 1 29 1 15-40 15-95c0-56 16-97 71-98 29-1 48 16 59 35 1-10 0-23 2-32h30zM94-22c36 0 50-32 50-73 0-42-14-75-50-75-39 0-46 34-46 75s6 73 46 73" id="aS"/><g id="A"><use transform="matrix(0.05,0,0,0.05,0,0)" xlink:href="#aM"/><use transform="matrix(0.05,0,0,0.05,12,0)" xlink:href="#aN"/><use transform="matrix(0.05,0,0,0.05,21,0)" xlink:href="#aO"/><use transform="matrix(0.05,0,0,0.05,31,0)" xlink:href="#aP"/><use transform="matrix(0.05,0,0,0.05,34.95,0)" xlink:href="#aQ"/><use transform="matrix(0.05,0,0,0.05,38.900000000000006,0)" xlink:href="#aR"/><use transform="matrix(0.05,0,0,0.05,48.900000000000006,0)" xlink:href="#aS"/></g><g id="B"><use transform="matrix(0.06172839506172839,0,0,0.06172839506172839,0,0)" xlink:href="#aF"/><use transform="matrix(0.06172839506172839,0,0,0.06172839506172839,15.987654320987653,0)" xlink:href="#aF"/><use transform="matrix(0.06172839506172839,0,0,0.06172839506172839,31.975308641975307,0)" xlink:href="#aF"/></g><path fill="#333" d="M30 0v-248h33v221h125V0H30" id="aT"/><g id="C"><use transform="matrix(0.06172839506172839,0,0,0.06172839506172839,0,0)" xlink:href="#aT"/><use transform="matrix(0.06172839506172839,0,0,0.06172839506172839,12.345679012345679,0)" xlink:href="#aa"/><use transform="matrix(0.06172839506172839,0,0,0.06172839506172839,24.691358024691358,0)" xlink:href="#ai"/><use transform="matrix(0.06172839506172839,0,0,0.06172839506172839,37.03703703703704,0)" xlink:href="#ac"/></g><path fill="#333" d="M160-131c35 5 61 23 61 61C221 17 115-2 30 0v-248c76 3 177-17 177 60 0 33-19 50-47 57zm-97-11c50-1 110 9 110-42 0-47-63-36-110-37v79zm0 115c55-2 124 14 124-45 0-56-70-42-124-44v89" id="aU"/><g id="D"><use transform="matrix(0.06172839506172839,0,0,0.06172839506172839,0,0)" xlink:href="#aU"/><use transform="matrix(0.06172839506172839,0,0,0.06172839506172839,14.814814814814813,0)" xlink:href="#ai"/><use transform="matrix(0.06172839506172839,0,0,0.06172839506172839,27.160493827160494,0)" xlink:href="#Z"/><use transform="matrix(0.06172839506172839,0,0,0.06172839506172839,32.03703703703704,0)" xlink:href="#ai"/><use transform="matrix(0.06172839506172839,0,0,0.06172839506172839,44.382716049382715,0)" xlink:href="#ao"/><use transform="matrix(0.06172839506172839,0,0,0.06172839506172839,56.72839506172839,0)" xlink:href="#Y"/><use transform="matrix(0.06172839506172839,0,0,0.06172839506172839,67.8395061728395,0)" xlink:href="#af"/><use transform="matrix(0.06172839506172839,0,0,0.06172839506172839,80.18518518518519,0)" xlink:href="#ag"/></g><g id="E"><use transform="matrix(0.06172839506172839,0,0,0.06172839506172839,0,0)" xlink:href="#W"/><use transform="matrix(0.06172839506172839,0,0,0.06172839506172839,20.493827160493826,0)" xlink:href="#af"/><use transform="matrix(0.06172839506172839,0,0,0.06172839506172839,32.839506172839506,0)" xlink:href="#ak"/><use transform="matrix(0.06172839506172839,0,0,0.06172839506172839,45.18518518518518,0)" xlink:href="#X"/><use transform="matrix(0.06172839506172839,0,0,0.06172839506172839,60,0)" xlink:href="#af"/><use transform="matrix(0.06172839506172839,0,0,0.06172839506172839,72.34567901234568,0)" xlink:href="#ag"/><use transform="matrix(0.06172839506172839,0,0,0.06172839506172839,79.69135802469137,0)" xlink:href="#ah"/><use transform="matrix(0.06172839506172839,0,0,0.06172839506172839,90.80246913580248,0)" xlink:href="#af"/><use transform="matrix(0.06172839506172839,0,0,0.06172839506172839,103.14814814814817,0)" xlink:href="#ag"/></g><g id="F"><use transform="matrix(0.06172839506172839,0,0,0.06172839506172839,0,0)" xlink:href="#X"/><use transform="matrix(0.06172839506172839,0,0,0.06172839506172839,14.814814814814813,0)" xlink:href="#af"/><use transform="matrix(0.06172839506172839,0,0,0.06172839506172839,27.160493827160494,0)" xlink:href="#Y"/><use transform="matrix(0.06172839506172839,0,0,0.06172839506172839,38.27160493827161,0)" xlink:href="#ab"/><use transform="matrix(0.06172839506172839,0,0,0.06172839506172839,50.617283950617285,0)" xlink:href="#ag"/><use transform="matrix(0.06172839506172839,0,0,0.06172839506172839,57.96296296296296,0)" xlink:href="#aj"/><use transform="matrix(0.06172839506172839,0,0,0.06172839506172839,62.839506172839506,0)" xlink:href="#al"/><use transform="matrix(0.06172839506172839,0,0,0.06172839506172839,69.01234567901234,0)" xlink:href="#am"/></g><path fill="#333" d="M143 4C61 4 22-44 18-125c-5-107 100-154 193-111 17 8 29 25 37 43l-32 9c-13-25-37-40-76-40-61 0-88 39-88 99 0 61 29 100 91 101 35 0 62-11 79-27v-45h-74v-28h105v86C228-13 192 4 143 4" id="aV"/><path fill="#333" d="M115-194c55 1 70 41 70 98S169 2 115 4C84 4 66-9 55-30l1 105H24l-1-265h31l2 30c10-21 28-34 59-34zm-8 174c40 0 45-34 45-75s-6-73-45-74c-42 0-51 32-51 76 0 43 10 73 51 73" id="aW"/><g id="G"><use transform="matrix(0.06172839506172839,0,0,0.06172839506172839,0,0)" xlink:href="#aV"/><use transform="matrix(0.06172839506172839,0,0,0.06172839506172839,17.28395061728395,0)" xlink:href="#ag"/><use transform="matrix(0.06172839506172839,0,0,0.06172839506172839,24.629629629629626,0)" xlink:href="#aa"/><use transform="matrix(0.06172839506172839,0,0,0.06172839506172839,36.9753086419753,0)" xlink:href="#ab"/><use transform="matrix(0.06172839506172839,0,0,0.06172839506172839,49.32098765432098,0)" xlink:href="#aW"/></g><g id="H"><use transform="matrix(0.06172839506172839,0,0,0.06172839506172839,0,0)" xlink:href="#ag"/><use transform="matrix(0.06172839506172839,0,0,0.06172839506172839,7.345679012345679,0)" xlink:href="#aa"/><use transform="matrix(0.06172839506172839,0,0,0.06172839506172839,19.691358024691358,0)" xlink:href="#ab"/><use transform="matrix(0.06172839506172839,0,0,0.06172839506172839,32.03703703703704,0)" xlink:href="#al"/><use transform="matrix(0.06172839506172839,0,0,0.06172839506172839,38.20987654320988,0)" xlink:href="#af"/></g><g id="I"><use transform="matrix(0.06172839506172839,0,0,0.06172839506172839,0,0)" xlink:href="#al"/><use transform="matrix(0.06172839506172839,0,0,0.06172839506172839,6.172839506172839,0)" xlink:href="#ai"/><use transform="matrix(0.06172839506172839,0,0,0.06172839506172839,18.51851851851852,0)" xlink:href="#ak"/><use transform="matrix(0.06172839506172839,0,0,0.06172839506172839,30.864197530864196,0)" xlink:href="#Z"/><use transform="matrix(0.06172839506172839,0,0,0.06172839506172839,35.74074074074074,0)" xlink:href="#af"/></g><g id="J"><use transform="matrix(0.06172839506172839,0,0,0.06172839506172839,0,0)" xlink:href="#X"/><use transform="matrix(0.06172839506172839,0,0,0.06172839506172839,14.814814814814813,0)" xlink:href="#aD"/></g><path fill="#333" d="M143 0L79-87 56-68V0H24v-261h32v163l83-92h37l-77 82L181 0h-38" id="aX"/><g id="K"><use transform="matrix(0.06172839506172839,0,0,0.06172839506172839,0,0)" xlink:href="#aU"/><use transform="matrix(0.06172839506172839,0,0,0.06172839506172839,14.814814814814813,0)" xlink:href="#ab"/><use transform="matrix(0.06172839506172839,0,0,0.06172839506172839,27.160493827160494,0)" xlink:href="#Y"/><use transform="matrix(0.06172839506172839,0,0,0.06172839506172839,38.27160493827161,0)" xlink:href="#aX"/><use transform="matrix(0.06172839506172839,0,0,0.06172839506172839,49.38271604938272,0)" xlink:href="#af"/><use transform="matrix(0.06172839506172839,0,0,0.06172839506172839,61.7283950617284,0)" xlink:href="#al"/></g><g id="L"><use transform="matrix(0.06172839506172839,0,0,0.06172839506172839,0,0)" xlink:href="#as"/><use transform="matrix(0.06172839506172839,0,0,0.06172839506172839,14.814814814814813,0)" xlink:href="#ag"/><use transform="matrix(0.06172839506172839,0,0,0.06172839506172839,22.160493827160494,0)" xlink:href="#aj"/><use transform="matrix(0.06172839506172839,0,0,0.06172839506172839,27.037037037037038,0)" xlink:href="#ah"/><use transform="matrix(0.06172839506172839,0,0,0.06172839506172839,38.14814814814815,0)" xlink:href="#ai"/><use transform="matrix(0.06172839506172839,0,0,0.06172839506172839,50.49382716049383,0)" xlink:href="#al"/><use transform="matrix(0.06172839506172839,0,0,0.06172839506172839,56.66666666666667,0)" xlink:href="#af"/></g><g id="M"><use transform="matrix(0.06172839506172839,0,0,0.06172839506172839,0,0)" xlink:href="#ag"/><use transform="matrix(0.06172839506172839,0,0,0.06172839506172839,7.345679012345679,0)" xlink:href="#aa"/><use transform="matrix(0.06172839506172839,0,0,0.06172839506172839,19.691358024691358,0)" xlink:href="#ab"/><use transform="matrix(0.06172839506172839,0,0,0.06172839506172839,32.03703703703704,0)" xlink:href="#al"/><use transform="matrix(0.06172839506172839,0,0,0.06172839506172839,38.20987654320988,0)" xlink:href="#af"/></g><g id="N"><use transform="matrix(0.06172839506172839,0,0,0.06172839506172839,0,0)" xlink:href="#al"/><use transform="matrix(0.06172839506172839,0,0,0.06172839506172839,6.172839506172839,0)" xlink:href="#ai"/><use transform="matrix(0.06172839506172839,0,0,0.06172839506172839,18.51851851851852,0)" xlink:href="#ak"/><use transform="matrix(0.06172839506172839,0,0,0.06172839506172839,30.864197530864196,0)" xlink:href="#Z"/><use transform="matrix(0.06172839506172839,0,0,0.06172839506172839,35.74074074074074,0)" xlink:href="#af"/></g><path fill="#333" d="M30 0v-248h187v28H63v79h144v27H63v87h162V0H30" id="aY"/><g id="O"><use transform="matrix(0.06172839506172839,0,0,0.06172839506172839,0,0)" xlink:href="#aY"/><use transform="matrix(0.06172839506172839,0,0,0.06172839506172839,14.814814814814813,0)" xlink:href="#Z"/><use transform="matrix(0.06172839506172839,0,0,0.06172839506172839,19.691358024691354,0)" xlink:href="#ai"/><use transform="matrix(0.06172839506172839,0,0,0.06172839506172839,32.03703703703703,0)" xlink:href="#ae"/><use transform="matrix(0.06172839506172839,0,0,0.06172839506172839,43.14814814814814,0)" xlink:href="#al"/><use transform="matrix(0.06172839506172839,0,0,0.06172839506172839,49.32098765432098,0)" xlink:href="#aj"/><use transform="matrix(0.06172839506172839,0,0,0.06172839506172839,54.197530864197525,0)" xlink:href="#Y"/></g><g id="P"><use transform="matrix(0.06172839506172839,0,0,0.06172839506172839,0,0)" xlink:href="#au"/><use transform="matrix(0.06172839506172839,0,0,0.06172839506172839,6.172839506172839,0)" xlink:href="#as"/></g><g id="Q"><use transform="matrix(0.06172839506172839,0,0,0.06172839506172839,0,0)" xlink:href="#ai"/><use transform="matrix(0.06172839506172839,0,0,0.06172839506172839,12.345679012345679,0)" xlink:href="#ac"/><use transform="matrix(0.06172839506172839,0,0,0.06172839506172839,24.691358024691358,0)" xlink:href="#ac"/><use transform="matrix(0.06172839506172839,0,0,0.06172839506172839,37.03703703703704,0)" xlink:href="#ag"/><use transform="matrix(0.06172839506172839,0,0,0.06172839506172839,44.382716049382715,0)" xlink:href="#af"/><use transform="matrix(0.06172839506172839,0,0,0.06172839506172839,56.72839506172839,0)" xlink:href="#ae"/><use transform="matrix(0.06172839506172839,0,0,0.06172839506172839,67.8395061728395,0)" xlink:href="#ae"/></g><g id="R"><use transform="matrix(0.06172839506172839,0,0,0.06172839506172839,0,0)" xlink:href="#aF"/><use transform="matrix(0.06172839506172839,0,0,0.06172839506172839,15.987654320987653,0)" xlink:href="#aF"/><use transform="matrix(0.06172839506172839,0,0,0.06172839506172839,31.975308641975307,0)" xlink:href="#aF"/></g><g id="S"><use transform="matrix(0.06172839506172839,0,0,0.06172839506172839,0,0)" xlink:href="#X"/><use transform="matrix(0.06172839506172839,0,0,0.06172839506172839,14.814814814814813,0)" xlink:href="#aD"/></g><g id="T"><use transform="matrix(0.06172839506172839,0,0,0.06172839506172839,0,0)" xlink:href="#aw"/><use transform="matrix(0.06172839506172839,0,0,0.06172839506172839,15.987654320987653,0)" xlink:href="#af"/><use transform="matrix(0.06172839506172839,0,0,0.06172839506172839,28.333333333333332,0)" xlink:href="#ai"/><use transform="matrix(0.06172839506172839,0,0,0.06172839506172839,40.67901234567901,0)" xlink:href="#ac"/></g><path fill="#333" d="M140-251c81 0 123 46 123 126C263-46 219 4 140 4 59 4 17-45 17-125s42-126 123-126zm0 227c63 0 89-41 89-101s-29-99-89-99c-61 0-89 39-89 99S79-25 140-24" id="aZ"/><g id="U"><use transform="matrix(0.06172839506172839,0,0,0.06172839506172839,0,0)" xlink:href="#aZ"/><use transform="matrix(0.06172839506172839,0,0,0.06172839506172839,17.28395061728395,0)" xlink:href="#ao"/><use transform="matrix(0.06172839506172839,0,0,0.06172839506172839,29.629629629629626,0)" xlink:href="#Z"/><use transform="matrix(0.06172839506172839,0,0,0.06172839506172839,34.50617283950617,0)" xlink:href="#am"/></g></defs></g></svg>